<svg width="295" height="362" viewBox="0 0 295 362" fill="none" xmlns="http://www.w3.org/2000/svg">
<g clip-path="url(#clip0_121_3216)">
<g opacity="0.5">
<path d="M18.6115 362L0 351.226V329.733L18.6115 318.987L37.2229 329.733V351.226L18.6115 362ZM0.42171 351.001L18.6115 361.522L36.8012 351.001V329.986L18.6115 319.465L0.42171 329.986V351.001Z" fill="#2E4292"/>
<path d="M1.1527 350.41V350.044L1.06836 330.464L1.37761 330.661L18.1617 340.536L17.8524 340.704L1.1527 350.41ZM1.49007 331.224L1.5463 349.678L17.3182 340.536L1.49007 331.224Z" fill="#2E4292"/>
<path d="M18.6115 319.465L0 308.718V287.226L18.6115 276.479L37.2229 287.226V308.718L18.6115 319.465ZM0.42171 308.465L18.6115 318.987L36.8012 308.465V287.451L18.6115 276.929L0.42171 287.451V308.465Z" fill="#2E4292"/>
<path d="M1.1527 307.874V307.509L1.06836 287.929L1.37761 288.126L18.1617 298L17.8524 298.197L1.1527 307.874ZM1.49007 288.689L1.5463 307.143L17.3182 298L1.49007 288.689Z" fill="#2E4292"/>
<path d="M18.6115 276.929L0 266.183V244.69L18.6115 233.944L37.2229 244.69V266.183L18.6115 276.929ZM0.42171 265.958L18.6115 276.479L36.8012 265.958V244.944L18.6115 234.422L0.42171 244.944V265.958Z" fill="#2E4292"/>
<path d="M1.1527 265.367V265.002L1.06836 245.422L1.37761 245.619L18.1617 255.493L17.8524 255.662L1.1527 265.367ZM1.49007 246.181L1.5463 264.664L17.3182 255.521L1.49007 246.181Z" fill="#2E4292"/>
<path d="M18.6115 234.422L0 223.676V202.183L18.6115 191.437L37.2229 202.183V223.676L18.6115 234.422ZM0.42171 223.423L18.6115 233.944L36.8012 223.423V202.408L18.6115 191.887L0.42171 202.408V223.423Z" fill="#2E4292"/>
<path d="M1.1527 222.832V222.466L1.06836 202.887L1.40573 203.112L18.1898 212.986L17.8805 213.155L1.1527 222.832ZM1.49007 203.646L1.5463 222.129L17.3182 212.986L1.49007 203.646Z" fill="#2E4292"/>
<path d="M18.6115 191.887L0 181.141V159.648L18.6115 148.902L18.7239 148.958L37.251 159.648V181.141L18.6115 191.887ZM0.42171 180.916L18.6115 191.437L36.8012 180.916V159.901L18.6115 149.38L0.42171 159.901V180.916Z" fill="#2E4292"/>
<path d="M1.1527 180.325V179.959L1.06836 160.379L1.37761 160.576L18.1617 170.451L17.8524 170.619L1.1527 180.325ZM1.49007 161.139L1.5463 179.593L17.3182 170.451L1.49007 161.139Z" fill="#2E4292"/>
<path d="M18.6115 149.38L18.499 149.324L0 138.634V117.141L18.6115 106.395L18.7239 106.451L37.251 117.141V138.634L37.1386 138.69L18.6115 149.38ZM0.42171 138.38L18.6115 148.902L36.8012 138.38V117.366L18.6115 106.845L0.42171 117.366V138.38Z" fill="#2E4292"/>
<path d="M1.1527 137.79V137.424L1.06836 117.872L1.37761 118.069L18.1617 127.943L17.8524 128.112L1.1527 137.79ZM1.49007 118.604L1.5463 137.058L17.3182 127.915L1.49007 118.604Z" fill="#2E4292"/>
<path d="M18.6115 106.845L18.499 106.788L0 96.0982V74.6055L0.112456 74.5492L18.6396 63.8591L18.752 63.9154L37.2791 74.6055V96.0982L18.6115 106.845ZM0.42171 95.845L18.6115 106.366L36.8012 95.845V74.8305L18.6115 64.3092L0.42171 74.8305V95.845Z" fill="#2E4292"/>
<path d="M1.1527 95.2824V94.9167L1.06836 75.3369L1.37761 75.5338L18.1617 85.4081L17.8524 85.5769L1.1527 95.2824ZM1.49007 76.0683L1.5463 94.5228L17.3182 85.38L1.49007 76.0683Z" fill="#2E4292"/>
<path d="M18.6115 64.3374L18.499 64.2811L0 53.5629V32.0702L18.6115 21.3239L18.7239 21.3801L37.251 32.0702V53.5629L37.1386 53.6192L18.6115 64.3374ZM0.42171 53.3378L18.6115 63.8591L36.8012 53.3378V32.3234L18.6115 21.8021L0.42171 32.3234V53.3378Z" fill="#2E4292"/>
<path d="M1.1527 52.7471V52.3814L1.06836 32.8016L1.37761 32.9986L18.1617 42.8728L17.8524 43.0416L1.1527 52.7471ZM1.49007 33.5612L1.5463 52.0157L17.3182 42.8728L1.49007 33.5612Z" fill="#2E4292"/>
<path d="M55.4415 340.676L36.8301 329.93V308.437L55.4415 297.691L74.053 308.437V329.93L55.4415 340.676ZM37.2518 329.677L55.4696 340.198L73.6594 329.677V308.662L55.4696 298.141L37.2518 308.662V329.677Z" fill="#2E4292"/>
<path d="M37.9535 329.086V328.72L37.8691 309.14L38.1784 309.337L54.9624 319.212L54.6532 319.38L37.9535 329.086ZM38.319 309.9L38.3752 328.354L54.1471 319.212L38.319 309.9Z" fill="#2E4292"/>
<path d="M55.4415 298.141L36.8301 287.394V265.902L55.4415 255.155L74.053 265.902V287.394L55.4415 298.141ZM37.2518 287.141L55.4696 297.663L73.6594 287.141V266.127L55.4696 255.606L37.2518 266.127V287.141Z" fill="#2E4292"/>
<path d="M37.9535 286.579V286.213L37.8691 266.633L38.1784 266.83L54.9624 276.704L54.6532 276.873L37.9535 286.579ZM38.319 267.365L38.3752 285.847L54.1471 276.704L38.319 267.365Z" fill="#2E4292"/>
<path d="M55.4415 255.634L36.8301 244.887V223.366L55.4415 212.62L74.053 223.366V244.859L55.4415 255.634ZM37.2518 244.634L55.4696 255.155L73.6594 244.634V223.62L55.4696 213.098L37.2518 223.62V244.634Z" fill="#2E4292"/>
<path d="M37.9535 244.043V243.678L37.8691 224.098L38.1784 224.295L54.9624 234.169L54.6532 234.338L37.9535 244.043ZM38.319 224.857L38.3752 243.34L54.1471 234.197L38.319 224.857Z" fill="#2E4292"/>
<path d="M55.4415 213.098L36.8301 202.352V180.859L55.4415 170.113L74.053 180.859V202.352L55.4415 213.098ZM37.2518 202.099L55.4696 212.62L73.6594 202.099V181.084L55.4696 170.563L37.2518 181.084V202.099Z" fill="#2E4292"/>
<path d="M37.9535 201.536V201.171L37.8691 181.591L38.1784 181.788L54.9624 191.662L54.6532 191.831L37.9535 201.536ZM38.319 182.322L38.3752 200.805L54.1471 191.662L38.319 182.322Z" fill="#2E4292"/>
<path d="M55.4415 170.591L36.8301 159.845V138.352L55.4415 127.606L55.554 127.662L74.053 138.352V159.845L55.4415 170.591ZM37.2518 159.592L55.4696 170.113L73.6594 159.592V138.577L55.4696 128.056L37.2518 138.577V159.592Z" fill="#2E4292"/>
<path d="M37.9535 159.001V158.635L37.8691 139.056L38.1784 139.252L54.9624 149.127L54.6532 149.296L37.9535 159.001ZM38.319 139.815L38.3752 158.27L54.1471 149.127L38.319 139.815Z" fill="#2E4292"/>
<path d="M55.4415 128.056L36.8301 117.31V95.8169L55.4415 85.0706L55.554 85.1268L74.053 95.8169V117.31L55.4415 128.056ZM37.2518 117.056L55.4696 127.578L73.6594 117.056V96.042L55.4696 85.5207L37.2518 96.042V117.056Z" fill="#2E4292"/>
<path d="M37.9535 116.494V116.128L37.8691 96.5483L38.1784 96.7453L54.9624 106.62L54.6532 106.788L37.9535 116.494ZM38.319 97.2798L38.3752 115.734L54.1471 106.591L38.319 97.2798Z" fill="#2E4292"/>
<path d="M55.4415 85.5207L36.8301 74.7743V53.2816L55.4415 42.5353L55.554 42.5915L74.053 53.2816V74.7743L73.9405 74.8306L55.4415 85.5207ZM37.2518 74.5493L55.4696 85.0706L73.6594 74.5493V53.5348L55.4696 43.0135L37.2518 53.5348V74.5493Z" fill="#2E4292"/>
<path d="M37.9535 73.9585V73.5928L37.8691 54.0131L38.1784 54.21L54.9624 64.0842L54.6532 64.253L37.9535 73.9585ZM38.319 54.7726L38.3752 73.2271L54.1471 64.0842L38.319 54.7726Z" fill="#2E4292"/>
<path d="M55.4415 43.0135L36.8301 32.2672V10.7463L55.4415 0L55.554 0.0562636L74.053 10.7463V32.239L55.4415 43.0135ZM37.2518 32.014L55.4696 42.5353L73.6594 32.014V10.9995L55.4696 0.478241L37.2518 10.9995V32.014Z" fill="#2E4292"/>
<path d="M37.9535 31.4232V31.0575L37.8691 11.4778L38.1784 11.6747L54.9624 21.549L54.6532 21.7178L37.9535 31.4232ZM38.319 12.2373L38.3752 30.6918L54.1471 21.549L38.319 12.2373Z" fill="#2E4292"/>
<path d="M92.2697 362L73.6582 351.254V329.761L92.2697 319.015L110.881 329.761V351.254L92.2697 362ZM74.0518 351L92.2697 361.522L110.459 351V329.986L92.2697 319.465L74.0518 329.986V351Z" fill="#2E4292"/>
<path d="M74.7836 350.41V350.044L74.6992 330.464L75.0085 330.661L91.7925 340.536L91.4833 340.704L74.7836 350.41ZM75.149 331.224L75.2053 349.678L90.9772 340.536L75.149 331.224Z" fill="#2E4292"/>
<path d="M92.2697 319.465L73.6582 308.718V287.226L92.2697 276.479L110.881 287.226V308.718L92.2697 319.465ZM74.0518 308.465L92.2697 318.987L110.459 308.465V287.451L92.2697 276.929L74.0518 287.451V308.465Z" fill="#2E4292"/>
<path d="M74.7836 307.874V307.509L74.6992 287.929L75.0085 288.126L91.7925 298L91.5114 298.197L74.7836 307.874ZM75.149 288.689L75.2053 307.143L90.9772 298L75.149 288.689Z" fill="#2E4292"/>
<path d="M92.2697 276.929L73.6582 266.183V244.69L92.2697 233.944L110.881 244.69V266.183L92.2697 276.929ZM74.0518 265.958L92.2697 276.479L110.459 265.958V244.944L92.2697 234.422L74.0518 244.944V265.958Z" fill="#2E4292"/>
<path d="M74.7836 265.367V265.002L74.6992 245.422L75.0085 245.619L91.7925 255.493L91.4833 255.662L74.7836 265.367ZM75.149 246.181L75.2053 264.664L90.9772 255.521L75.149 246.181Z" fill="#2E4292"/>
<path d="M92.2697 234.422L73.6582 223.676V202.183L92.2697 191.437L110.881 202.183V223.676L92.2697 234.422ZM74.0518 223.423L92.2697 233.944L110.459 223.423V202.408L92.2697 191.887L74.0518 202.408V223.423Z" fill="#2E4292"/>
<path d="M74.7836 222.832V222.466L74.6992 202.887L75.0085 203.084L91.7925 212.958L91.4833 213.127L74.7836 222.832ZM75.149 203.646L75.2053 222.129L90.9772 212.986L75.149 203.646Z" fill="#2E4292"/>
<path d="M92.2697 191.887L73.6582 181.141V159.648L92.2697 148.902L92.3821 148.958L110.909 159.648V181.141L92.2697 191.887ZM74.0518 180.916L92.2697 191.437L110.459 180.916V159.901L92.2697 149.38L74.0518 159.901V180.916Z" fill="#2E4292"/>
<path d="M74.7836 180.325V179.959L74.6992 160.379L75.0085 160.576L91.7925 170.451L91.4833 170.619L74.7836 180.325ZM75.149 161.139L75.2053 179.593L90.9772 170.451L75.149 161.139Z" fill="#2E4292"/>
<path d="M92.2704 149.38L92.158 149.324L73.6309 138.634V117.141L73.7433 117.085L92.2704 106.395L92.3829 106.451L110.91 117.141V138.634L110.798 138.69L92.2704 149.38ZM74.0526 138.38L92.2704 148.902L110.46 138.38V117.366L92.2704 106.845L74.0526 117.366V138.38Z" fill="#2E4292"/>
<path d="M74.7836 137.79V137.424L74.6992 117.844L75.0085 118.041L91.7925 127.915L91.4833 128.084L74.7836 137.79ZM75.149 118.604L75.2053 137.058L90.9772 127.915L75.149 118.604Z" fill="#2E4292"/>
<path d="M92.2704 106.845L92.158 106.788L73.6309 96.0982V74.6055L73.7433 74.5492L92.2704 63.8591L92.3829 63.9154L110.91 74.6055V96.0982L92.2704 106.845ZM74.0526 95.845L92.2704 106.366L110.46 95.845V74.8305L92.2704 64.3092L74.0526 74.8305V95.845Z" fill="#2E4292"/>
<path d="M74.7836 95.2824V94.9167L74.6992 75.3369L75.0085 75.5338L91.7925 85.4081L91.4833 85.5769L74.7836 95.2824ZM75.149 76.0683L75.2053 94.5228L90.9772 85.38L75.149 76.0683Z" fill="#2E4292"/>
<path d="M92.2704 64.3374L92.158 64.2811L73.6309 53.591V32.0702L73.7433 32.0139L92.2704 21.3239L92.3829 21.3801L110.91 32.0702V53.5629L110.798 53.6192L92.2704 64.3374ZM74.0526 53.3378L92.2704 63.8591L110.46 53.3378V32.3234L92.2704 21.8021L74.0526 32.3234V53.3378Z" fill="#2E4292"/>
<path d="M74.7836 52.7471V52.3814L74.6992 32.8016L75.0085 32.9986L91.7925 42.8728L91.4833 43.0416L74.7836 52.7471ZM75.149 33.5612L75.2053 52.0157L90.9772 42.8728L75.149 33.5612Z" fill="#2E4292"/>
<path d="M129.1 340.676L110.488 329.93V308.437L129.1 297.691L147.711 308.437V329.93L129.1 340.676ZM110.882 329.677L129.072 340.198L147.261 329.677V308.662L129.072 298.141L110.882 308.662V329.677Z" fill="#2E4292"/>
<path d="M111.612 329.086V328.72L111.527 309.14L111.837 309.337L128.621 319.212L128.311 319.38L111.612 329.086ZM111.977 309.9L112.033 328.354L127.805 319.212L111.977 309.9Z" fill="#2E4292"/>
<path d="M129.1 298.141L110.488 287.394V265.902L129.1 255.155L147.711 265.902V287.394L129.1 298.141ZM110.882 287.141L129.072 297.663L147.261 287.141V266.127L129.072 255.606L110.882 266.127V287.141Z" fill="#2E4292"/>
<path d="M111.612 286.579V286.213L111.527 266.633L111.837 266.83L128.621 276.704L128.311 276.873L111.612 286.579ZM111.977 267.365L112.033 285.847L127.805 276.704L111.977 267.365Z" fill="#2E4292"/>
<path d="M129.1 255.634L110.488 244.887V223.366L129.1 212.62L147.711 223.366V244.859L129.1 255.634ZM110.882 244.634L129.072 255.155L147.261 244.634V223.62L129.072 213.098L110.882 223.62V244.634Z" fill="#2E4292"/>
<path d="M111.612 244.043V243.678L111.527 224.098L111.837 224.295L128.621 234.169L128.311 234.338L111.612 244.043ZM111.977 224.857L112.033 243.34L127.805 234.197L111.977 224.857Z" fill="#2E4292"/>
<path d="M129.1 213.098L110.488 202.352V180.859L129.1 170.113L147.711 180.859V202.352L129.1 213.098ZM110.882 202.099L129.072 212.62L147.261 202.099V181.084L129.072 170.563L110.882 181.084V202.099Z" fill="#2E4292"/>
<path d="M111.612 201.536V201.171L111.527 181.591L111.837 181.788L128.621 191.662L128.311 191.831L111.612 201.536ZM111.977 182.322L112.033 200.805L127.805 191.662L111.977 182.322Z" fill="#2E4292"/>
<path d="M129.1 170.591L110.488 159.845V138.352L129.1 127.606L129.212 127.662L147.739 138.352V159.845L129.1 170.591ZM110.882 159.592L129.072 170.113L147.261 159.592V138.577L129.072 128.056L110.882 138.577V159.592Z" fill="#2E4292"/>
<path d="M111.612 159.001V158.635L111.527 139.056L111.837 139.252L128.621 149.127L128.311 149.296L111.612 159.001ZM111.977 139.815L112.033 158.27L127.805 149.127L111.977 139.815Z" fill="#2E4292"/>
<path d="M129.099 128.056L128.986 128L110.459 117.31V95.8169L129.07 85.0706L129.183 85.1268L147.71 95.8169V117.31L129.099 128.056ZM110.881 117.056L129.07 127.578L147.26 117.056V96.042L129.07 85.5207L110.881 96.042V117.056Z" fill="#2E4292"/>
<path d="M111.612 116.494V116.128L111.527 96.5483L111.837 96.7453L128.621 106.62L128.311 106.788L111.612 116.494ZM111.977 97.2798L112.033 115.734L127.805 106.591L111.977 97.2798Z" fill="#2E4292"/>
<path d="M129.099 85.5207L128.986 85.4644L110.459 74.7743V53.2816L129.07 42.5353L147.682 53.2816V74.7743L147.598 74.8306L129.099 85.5207ZM110.881 74.5493L129.07 85.0706L147.26 74.5493V53.5348L129.07 43.0135L110.881 53.5348V74.5493Z" fill="#2E4292"/>
<path d="M111.612 73.9585V73.5928L111.527 54.0131L111.837 54.21L128.621 64.0842L128.311 64.253L111.612 73.9585ZM111.977 54.7726L112.033 73.2271L127.805 64.0842L111.977 54.7726Z" fill="#2E4292"/>
<path d="M129.099 43.0135L128.986 42.9573L110.459 32.2672V10.7463L129.099 0L129.211 0.0562636L147.738 10.7463V32.239L129.099 43.0135ZM110.881 32.014L129.07 42.5353L147.26 32.014V10.9995L129.07 0.478241L110.881 10.9995V32.014Z" fill="#2E4292"/>
<path d="M111.612 31.4232V31.0575L111.527 11.4778L111.837 11.6747L128.621 21.549L128.311 21.7178L111.612 31.4232ZM111.977 12.2373L112.033 30.6918L127.805 21.549L111.977 12.2373Z" fill="#2E4292"/>
</g>
<g opacity="0.5">
<path d="M165.901 362L147.289 351.254V329.761L165.901 319.015L184.512 329.761V351.254L165.901 362ZM147.711 351L165.901 361.522L184.09 351V329.986L165.901 319.465L147.711 329.986V351Z" fill="#2E4292"/>
<path d="M148.442 350.41V350.044L148.357 330.464L148.667 330.661L165.451 340.536L165.141 340.704L148.442 350.41ZM148.779 331.224L148.835 349.678L164.607 340.536L148.779 331.224Z" fill="#2E4292"/>
<path d="M165.901 319.465L147.289 308.718V287.226L165.901 276.479L184.512 287.226V308.718L165.901 319.465ZM147.711 308.465L165.901 318.987L184.09 308.465V287.451L165.901 276.929L147.711 287.451V308.465Z" fill="#2E4292"/>
<path d="M148.442 307.874V307.509L148.357 287.929L148.667 288.126L165.451 298L165.141 298.197L148.442 307.874ZM148.779 288.689L148.835 307.143L164.607 298L148.779 288.689Z" fill="#2E4292"/>
<path d="M165.901 276.929L147.289 266.183V244.69L165.901 233.944L184.512 244.69V266.183L165.901 276.929ZM147.711 265.958L165.901 276.479L184.09 265.958V244.944L165.901 234.422L147.711 244.944V265.958Z" fill="#2E4292"/>
<path d="M148.442 265.367V265.002L148.357 245.422L148.667 245.619L165.451 255.493L165.141 255.662L148.442 265.367ZM148.779 246.181L148.835 264.664L164.607 255.521L148.779 246.181Z" fill="#2E4292"/>
<path d="M165.901 234.422L147.289 223.676V202.183L165.901 191.437L184.512 202.183V223.676L165.901 234.422ZM147.711 223.423L165.901 233.944L184.09 223.423V202.408L165.901 191.887L147.711 202.408V223.423Z" fill="#2E4292"/>
<path d="M148.442 222.832V222.466L148.357 202.887L148.667 203.084L165.451 212.958L165.141 213.127L148.442 222.832ZM148.779 203.646L148.835 222.129L164.607 212.986L148.779 203.646Z" fill="#2E4292"/>
<path d="M165.901 191.887L147.289 181.141V159.648L165.901 148.902L166.013 148.958L184.54 159.648V181.141L165.901 191.887ZM147.711 180.916L165.901 191.437L184.09 180.916V159.901L165.901 149.38L147.711 159.901V180.916Z" fill="#2E4292"/>
<path d="M148.442 180.325V179.959L148.357 160.379L148.667 160.576L165.451 170.451L165.141 170.619L148.442 180.325ZM148.779 161.139L148.835 179.593L164.607 170.451L148.779 161.139Z" fill="#2E4292"/>
<path d="M165.901 149.38L165.789 149.324L147.262 138.634V117.141L165.873 106.395L165.986 106.451L184.513 117.141V138.634L184.428 138.69L165.901 149.38ZM147.712 138.38L165.901 148.902L184.091 138.38V117.366L165.901 106.845L147.712 117.366V138.38Z" fill="#2E4292"/>
<path d="M148.442 137.79V137.424L148.357 117.844L148.667 118.041L165.451 127.915L165.141 128.084L148.442 137.79ZM148.779 118.604L148.835 137.058L164.607 127.915L148.779 118.604Z" fill="#2E4292"/>
<path d="M165.901 106.845L165.789 106.788L147.262 96.0982V74.6055L147.374 74.5492L165.901 63.8591L166.014 63.9154L184.541 74.6055V96.0982L165.901 106.845ZM147.712 95.845L165.901 106.366L184.091 95.845V74.8305L165.901 64.3092L147.712 74.8305V95.845Z" fill="#2E4292"/>
<path d="M148.442 95.2824V94.9167L148.357 75.3369L148.667 75.5338L165.451 85.4081L165.141 85.5769L148.442 95.2824ZM148.779 76.0683L148.835 94.5228L164.607 85.38L148.779 76.0683Z" fill="#2E4292"/>
<path d="M165.901 64.3374L165.789 64.2811L147.262 53.591V32.0702L165.873 21.3239L165.986 21.3801L184.513 32.0702V53.5629L184.4 53.6192L165.901 64.3374ZM147.712 53.3378L165.901 63.8591L184.091 53.3378V32.3234L165.901 21.8021L147.712 32.3234V53.3378Z" fill="#2E4292"/>
<path d="M148.442 52.7471V52.3814L148.357 32.8016L148.667 32.9986L165.451 42.8728L165.141 43.0416L148.442 52.7471ZM148.779 33.5612L148.835 52.0157L164.607 42.8728L148.779 33.5612Z" fill="#2E4292"/>
<path d="M202.731 340.676L184.119 329.93V308.437L202.731 297.691L221.342 308.437V329.93L202.731 340.676ZM184.541 329.677L202.759 340.198L220.948 329.677V308.662L202.759 298.141L184.541 308.662V329.677Z" fill="#2E4292"/>
<path d="M185.272 329.086V328.72L185.188 309.14L185.497 309.337L202.281 319.212L201.972 319.38L185.272 329.086ZM185.609 309.9L185.665 328.354L201.437 319.212L185.609 309.9Z" fill="#2E4292"/>
<path d="M202.731 298.141L184.119 287.394V265.902L202.731 255.155L221.342 265.902V287.394L202.731 298.141ZM184.541 287.141L202.759 297.663L220.948 287.141V266.127L202.759 255.606L184.541 266.127V287.141Z" fill="#2E4292"/>
<path d="M185.272 286.579V286.213L185.188 266.633L185.497 266.83L202.281 276.704L201.972 276.873L185.272 286.579ZM185.609 267.365L185.665 285.847L201.437 276.704L185.609 267.365Z" fill="#2E4292"/>
<path d="M202.731 255.634L184.119 244.887V223.366L202.731 212.62L221.342 223.366V244.859L202.731 255.634ZM184.541 244.634L202.759 255.155L220.948 244.634V223.62L202.759 213.098L184.541 223.62V244.634Z" fill="#2E4292"/>
<path d="M185.272 244.043V243.678L185.188 224.098L185.497 224.295L202.281 234.169L201.972 234.338L185.272 244.043ZM185.609 224.857L185.665 243.34L201.437 234.197L185.609 224.857Z" fill="#2E4292"/>
<path d="M202.731 213.098L184.119 202.352V180.859L202.731 170.113L221.342 180.859V202.352L202.731 213.098ZM184.541 202.099L202.759 212.62L220.948 202.099V181.084L202.759 170.563L184.541 181.084V202.099Z" fill="#2E4292"/>
<path d="M185.272 201.536V201.171L185.188 181.591L185.497 181.788L202.281 191.662L201.972 191.831L185.272 201.536ZM185.609 182.322L185.665 200.805L201.437 191.662L185.609 182.322Z" fill="#2E4292"/>
<path d="M202.731 170.591L184.119 159.845V138.352L202.731 127.606L202.843 127.662L221.342 138.352V159.845L202.731 170.591ZM184.541 159.592L202.759 170.113L220.948 159.592V138.577L202.759 128.056L184.541 138.577V159.592Z" fill="#2E4292"/>
<path d="M185.272 159.001V158.635L185.188 139.056L185.497 139.252L202.281 149.127L201.972 149.296L185.272 159.001ZM185.609 139.815L185.665 158.27L201.437 149.127L185.609 139.815Z" fill="#2E4292"/>
<path d="M202.731 128.056L184.119 117.31V95.8169L202.731 85.0706L202.843 85.1268L221.342 95.8169V117.31L202.731 128.056ZM184.541 117.056L202.759 127.578L220.948 117.056V96.042L202.759 85.5207L184.541 96.042V117.056Z" fill="#2E4292"/>
<path d="M185.272 116.494V116.128L185.188 96.5483L185.497 96.7453L202.281 106.62L201.972 106.788L185.272 116.494ZM185.609 97.2798L185.665 115.734L201.437 106.591L185.609 97.2798Z" fill="#2E4292"/>
<path d="M202.731 85.5207L184.119 74.7743V53.2816L202.731 42.5353L202.843 42.5915L221.342 53.2816V74.7743L221.258 74.8306L202.731 85.5207ZM184.541 74.5493L202.759 85.0706L220.948 74.5493V53.5348L202.759 43.0135L184.541 53.5348V74.5493Z" fill="#2E4292"/>
<path d="M185.272 73.9585V73.5928L185.188 54.0131L185.497 54.21L202.281 64.0842L201.972 64.253L185.272 73.9585ZM185.609 54.7726L185.665 73.2271L201.437 64.0842L185.609 54.7726Z" fill="#2E4292"/>
<path d="M202.731 43.0135L184.119 32.2672V10.7463L202.731 0L202.843 0.0562636L221.342 10.7463V32.239L202.731 43.0135ZM184.541 32.014L202.759 42.5353L220.948 32.014V10.9995L202.759 0.478241L184.541 10.9995V32.014Z" fill="#2E4292"/>
<path d="M185.272 31.4232V31.0575L185.188 11.4778L185.497 11.6747L202.281 21.549L201.972 21.7178L185.272 31.4232ZM185.609 12.2373L185.665 30.6918L201.437 21.549L185.609 12.2373Z" fill="#2E4292"/>
<path d="M239.561 362L220.949 351.254V329.761L239.561 319.015L258.172 329.761V351.254L239.561 362ZM221.371 351L239.589 361.522L257.779 351V329.986L239.589 319.465L221.371 329.986V351Z" fill="#2E4292"/>
<path d="M222.073 350.41V350.044L221.988 330.464L222.298 330.661L239.082 340.536L238.772 340.704L222.073 350.41ZM222.438 331.224L222.494 349.678L238.266 340.536L222.438 331.224Z" fill="#2E4292"/>
<path d="M239.561 319.465L220.949 308.718V287.226L239.561 276.479L258.172 287.226V308.718L239.561 319.465ZM221.371 308.465L239.589 318.987L257.779 308.465V287.451L239.589 276.929L221.371 287.451V308.465Z" fill="#2E4292"/>
<path d="M222.073 307.874V307.509L221.988 287.929L222.298 288.126L239.082 298L238.8 298.197L222.073 307.874ZM222.438 288.689L222.494 307.143L238.266 298L222.438 288.689Z" fill="#2E4292"/>
<path d="M239.561 276.929L220.949 266.183V244.69L239.561 233.944L258.172 244.69V266.183L239.561 276.929ZM221.371 265.958L239.589 276.479L257.779 265.958V244.944L239.589 234.422L221.371 244.944V265.958Z" fill="#2E4292"/>
<path d="M222.073 265.367V265.002L221.988 245.422L222.298 245.619L239.082 255.493L238.772 255.662L222.073 265.367ZM222.438 246.181L222.494 264.664L238.266 255.521L222.438 246.181Z" fill="#2E4292"/>
<path d="M239.561 234.422L220.949 223.676V202.183L239.561 191.437L258.172 202.183V223.676L239.561 234.422ZM221.371 223.423L239.589 233.944L257.779 223.423V202.408L239.589 191.887L221.371 202.408V223.423Z" fill="#2E4292"/>
<path d="M222.073 222.832V222.466L221.988 202.887L222.298 203.084L239.082 212.958L238.772 213.127L222.073 222.832ZM222.438 203.646L222.494 222.129L238.266 212.986L222.438 203.646Z" fill="#2E4292"/>
<path d="M239.561 191.887L220.949 181.141V159.648L239.561 148.902L239.673 148.958L258.2 159.648V181.141L239.561 191.887ZM221.371 180.916L239.589 191.437L257.779 180.916V159.901L239.589 149.38L221.371 159.901V180.916Z" fill="#2E4292"/>
<path d="M222.073 180.325V179.959L221.988 160.379L222.298 160.576L239.082 170.451L238.772 170.619L222.073 180.325ZM222.438 161.139L222.494 179.593L238.266 170.451L222.438 161.139Z" fill="#2E4292"/>
<path d="M239.559 149.38L239.447 149.324L220.92 138.634V117.141L221.032 117.085L239.559 106.395L239.672 106.451L258.199 117.141V138.634L258.087 138.69L239.559 149.38ZM221.37 138.38L239.588 148.902L257.777 138.38V117.366L239.588 106.845L221.37 117.366V138.38Z" fill="#2E4292"/>
<path d="M222.073 137.79V137.424L221.988 117.844L222.298 118.041L239.082 127.915L238.772 128.084L222.073 137.79ZM222.438 118.604L222.494 137.058L238.266 127.915L222.438 118.604Z" fill="#2E4292"/>
<path d="M239.559 106.845L239.447 106.788L220.92 96.0982V74.6055L221.032 74.5492L239.559 63.8591L239.672 63.9154L258.199 74.6055V96.0982L239.559 106.845ZM221.37 95.845L239.588 106.366L257.777 95.845V74.8305L239.588 64.3092L221.37 74.8305V95.845Z" fill="#2E4292"/>
<path d="M222.073 95.2824V94.9167L221.988 75.3369L222.298 75.5338L239.082 85.4081L238.772 85.5769L222.073 95.2824ZM222.438 76.0683L222.494 94.5228L238.266 85.38L222.438 76.0683Z" fill="#2E4292"/>
<path d="M239.559 64.3374L239.447 64.2811L220.92 53.591V32.0702L221.032 32.0139L239.559 21.3239L239.672 21.3801L258.199 32.0702V53.5629L258.087 53.6192L239.559 64.3374ZM221.37 53.3378L239.588 63.8591L257.777 53.3378V32.3234L239.588 21.8021L221.37 32.3234V53.3378Z" fill="#2E4292"/>
<path d="M222.073 52.7471V52.3814L221.988 32.8016L222.298 32.9986L239.082 42.8728L238.772 43.0416L222.073 52.7471ZM222.438 33.5612L222.494 52.0157L238.266 42.8728L222.438 33.5612Z" fill="#2E4292"/>
<path d="M276.389 340.676L257.777 329.93V308.437L276.389 297.691L295 308.437V329.93L276.389 340.676ZM258.171 329.677L276.361 340.198L294.55 329.677V308.662L276.361 298.141L258.171 308.662V329.677Z" fill="#2E4292"/>
<path d="M258.903 329.086V328.72L258.818 309.14L259.128 309.337L275.912 319.212L275.602 319.38L258.903 329.086ZM259.268 309.9L259.324 328.354L275.096 319.212L259.268 309.9Z" fill="#2E4292"/>
<path d="M276.389 298.141L257.777 287.394V265.902L276.389 255.155L295 265.902V287.394L276.389 298.141ZM258.171 287.141L276.361 297.663L294.55 287.141V266.127L276.361 255.606L258.171 266.127V287.141Z" fill="#2E4292"/>
<path d="M258.903 286.579V286.213L258.818 266.633L259.128 266.83L275.912 276.704L275.602 276.873L258.903 286.579ZM259.268 267.365L259.324 285.847L275.096 276.704L259.268 267.365Z" fill="#2E4292"/>
<path d="M276.389 255.634L257.777 244.887V223.366L276.389 212.62L295 223.366V244.859L276.389 255.634ZM258.171 244.634L276.361 255.155L294.55 244.634V223.62L276.361 213.098L258.171 223.62V244.634Z" fill="#2E4292"/>
<path d="M258.903 244.043V243.678L258.818 224.098L259.128 224.295L275.912 234.169L275.602 234.338L258.903 244.043ZM259.268 224.857L259.324 243.34L275.096 234.197L259.268 224.857Z" fill="#2E4292"/>
<path d="M276.389 213.098L257.777 202.352V180.859L276.389 170.113L295 180.859V202.352L276.389 213.098ZM258.171 202.099L276.361 212.62L294.55 202.099V181.084L276.361 170.563L258.171 181.084V202.099Z" fill="#2E4292"/>
<path d="M258.903 201.536V201.171L258.818 181.591L259.128 181.788L275.912 191.662L275.602 191.831L258.903 201.536ZM259.268 182.322L259.324 200.805L275.096 191.662L259.268 182.322Z" fill="#2E4292"/>
<path d="M276.389 170.591L257.777 159.845V138.352L276.389 127.606L276.501 127.662L295.028 138.352V159.845L276.389 170.591ZM258.171 159.592L276.361 170.113L294.55 159.592V138.577L276.361 128.056L258.171 138.577V159.592Z" fill="#2E4292"/>
<path d="M258.903 159.001V158.635L258.818 139.056L259.128 139.252L275.912 149.127L275.602 149.296L258.903 159.001ZM259.268 139.815L259.324 158.27L275.096 149.127L259.268 139.815Z" fill="#2E4292"/>
<path d="M276.39 128.056L276.277 128L257.75 117.31V95.8169L276.361 85.0706L276.474 85.1268L295.001 95.8169V117.31L276.39 128.056ZM258.172 117.056L276.361 127.578L294.551 117.056V96.042L276.361 85.5207L258.172 96.042V117.056Z" fill="#2E4292"/>
<path d="M258.903 116.494V116.128L258.818 96.5483L259.128 96.7453L275.912 106.62L275.602 106.788L258.903 116.494ZM259.268 97.2798L259.324 115.734L275.096 106.591L259.268 97.2798Z" fill="#2E4292"/>
<path d="M276.39 85.5207L276.277 85.4644L257.75 74.7743V53.2816L276.361 42.5353L294.973 53.2816V74.7743L294.86 74.8306L276.39 85.5207ZM258.172 74.5493L276.361 85.0706L294.551 74.5493V53.5348L276.361 43.0135L258.172 53.5348V74.5493Z" fill="#2E4292"/>
<path d="M258.903 73.9585V73.5928L258.818 54.0131L259.128 54.21L275.912 64.0842L275.602 64.253L258.903 73.9585ZM259.268 54.7726L259.324 73.2271L275.096 64.0842L259.268 54.7726Z" fill="#2E4292"/>
<path d="M276.39 43.0135L276.277 42.9573L257.75 32.2672V10.7463L276.39 0L276.502 0.0562636L295.029 10.7463V32.239L276.39 43.0135ZM258.172 32.014L276.361 42.5353L294.551 32.014V10.9995L276.361 0.478241L258.172 10.9995V32.014Z" fill="#2E4292"/>
<path d="M258.903 31.4232V31.0575L258.818 11.4778L259.128 11.6747L275.912 21.549L275.602 21.7178L258.903 31.4232ZM259.268 12.2373L259.324 30.6918L275.096 21.549L259.268 12.2373Z" fill="#2E4292"/>
</g>
</g>
<defs>
<clipPath id="clip0_121_3216">
<rect width="295" height="362" fill="white"/>
</clipPath>
</defs>
</svg>
