<svg width="52" height="43" viewBox="0 0 52 43" fill="none" xmlns="http://www.w3.org/2000/svg">
<g clip-path="url(#clip0_163_2239)">
<path d="M24.2878 0.10911C17.7644 0.358385 11.2255 3.8794 7.66026 9.08302L7.14648 9.81527H7.52014C7.78481 9.81527 8.09618 9.56599 8.60996 8.91165C9.3884 7.89896 11.3968 5.85802 11.9417 5.49969C12.2531 5.29715 12.3621 5.32831 13.374 5.92034C13.9812 6.2631 14.4794 6.62143 14.4794 6.68375C14.4794 6.76165 14.3704 6.90186 14.2303 7.0265C13.9968 7.21346 12.9848 8.60005 12.3776 9.53483C12.113 9.97107 12.113 9.97107 12.471 9.97107C12.7513 9.97107 13.0627 9.67505 13.7477 8.74027C15.18 6.79281 14.9621 6.8707 16.9237 7.55621C17.8423 7.88338 18.6674 8.21056 18.7453 8.27288C18.8076 8.3352 18.7453 8.70911 18.6052 9.0986C18.4495 9.50367 18.3716 9.86201 18.4183 9.90875C18.6363 10.1424 19.1034 9.75295 19.368 9.0986C19.6171 8.50657 19.7106 8.39752 19.9908 8.47541C20.1621 8.53773 21.2674 8.67795 22.4195 8.81817C24.9884 9.12976 24.9106 9.11418 24.9106 9.50367C24.9106 9.95549 25.5022 9.92433 25.5644 9.45694C25.6112 9.16092 25.7357 9.0986 26.6231 9.00512C28.1333 8.83375 30.095 8.56889 30.4064 8.47541C30.6088 8.4131 30.7489 8.56889 30.9824 9.0986C31.2315 9.67505 31.3561 9.81527 31.683 9.81527H32.0722L31.8231 9.22324C31.683 8.91165 31.5585 8.55331 31.5429 8.44425C31.5429 8.31962 32.2124 7.97686 33.3177 7.57179L35.1082 6.90186L35.4662 7.22904C35.7465 7.47831 36.992 9.08302 37.4591 9.78411C37.5058 9.86201 38.2998 9.93991 38.2998 9.86201C38.2998 9.75295 36.8674 7.72759 36.4159 7.19788C36.1668 6.91744 35.9644 6.63701 35.9644 6.57469C35.9644 6.51237 36.4315 6.20078 37.0076 5.8736C37.9261 5.34389 38.0974 5.29715 38.4088 5.46853C38.9381 5.74896 41.1333 7.9457 41.8962 8.95838C42.3633 9.58157 42.6435 9.81527 42.9237 9.81527C43.3908 9.81527 43.3597 9.76853 42.0363 8.08592C37.9417 2.8823 31.2004 -0.140166 24.2878 0.10911ZM28.0243 0.934834C29.4722 1.15295 29.7369 1.23085 29.7369 1.40223C29.7369 1.62034 28.2579 2.33701 27.3237 2.58628C26.374 2.85114 24.2878 2.86672 23.1668 2.63302C22.3106 2.44607 20.5513 1.62034 20.5513 1.38665C20.5513 0.903675 25.7668 0.59208 28.0243 0.934834ZM19.8351 1.85404C20.0842 2.13447 20.0686 2.16563 19.3525 2.60186C18.9477 2.85114 17.8734 3.66128 16.986 4.37795C16.0986 5.09462 15.2734 5.74896 15.1644 5.82686C14.9309 6.01382 13.1872 5.12578 13.1094 4.78302C13.0315 4.40911 15.8028 2.85114 18.0603 2.00983C19.4615 1.48012 19.4926 1.48012 19.8351 1.85404ZM32.01 1.8852C33.598 2.36817 37.3656 4.36237 37.3656 4.70512C37.3656 4.84534 35.4974 5.9515 35.3417 5.88918C35.2794 5.85802 34.7968 5.45295 34.2674 4.98556C33.4423 4.25331 31.6519 2.92904 30.5776 2.22795C30.2818 2.04099 30.2818 2.02541 30.5776 1.79172C30.9513 1.51128 30.7489 1.4957 32.01 1.8852ZM22.1082 3.27179C22.1082 3.34969 22.0459 3.44317 21.968 3.48991C21.7656 3.61454 20.1932 6.0294 19.7884 6.82396C19.586 7.22904 19.3525 7.47831 19.1812 7.47831C18.8854 7.47831 16.3321 6.65259 16.0207 6.46563C15.6782 6.24752 18.0136 4.23773 19.9908 3.05368L20.8938 2.50839L21.501 2.81998C21.8435 2.99136 22.1082 3.19389 22.1082 3.27179ZM30.5776 3.11599C32.4926 4.23773 34.61 6.09172 34.3141 6.38773C34.1118 6.59027 31.6207 7.47831 31.2471 7.47831C31.0914 7.47831 30.8423 7.2602 30.7022 6.99534C30.5621 6.73049 29.9393 5.74896 29.3165 4.81418L28.1956 3.11599L28.7716 2.81998C29.083 2.6486 29.3788 2.50839 29.4255 2.49281C29.4722 2.49281 29.986 2.77324 30.5776 3.11599ZM24.5058 3.58338L24.9106 3.73918V5.99824V8.2573H23.8674C22.8866 8.2573 21.1585 8.03918 20.5201 7.85223C20.3644 7.80549 20.2399 7.66527 20.2399 7.54063C20.2399 7.19788 21.8435 4.67396 22.6375 3.77034C22.9644 3.39643 23.7896 3.30295 24.5058 3.58338ZM28.0243 4.17541C28.6782 5.06346 30.204 7.47831 30.204 7.63411C30.204 7.89896 25.7668 8.50657 25.6112 8.2573C25.58 8.21056 25.5489 7.15114 25.5489 5.88918L25.5177 3.59896L25.9537 3.53665C27.2615 3.34969 27.4483 3.39643 28.0243 4.17541Z" fill="white"/>
<path d="M18.0757 12.0742C15.2578 12.713 13.623 14.2865 13.2338 16.7481C12.9069 18.7423 13.4206 20.3315 14.8063 21.6557C15.9272 22.7307 16.7212 23.0735 21.0494 24.3822C24.8482 25.5351 25.4865 25.8467 25.2841 26.4076C25.0039 27.1086 21.8278 27.28 20.1775 26.6724C19.0877 26.2673 17.7332 25.2858 17.344 24.6159L17.0637 24.1485H15.1488H13.2338V27.576V31.0036H15.3356H17.4374V30.3804C17.4374 30.0376 17.4685 29.7572 17.4841 29.7572C17.5152 29.7572 17.9512 29.9597 18.4649 30.209C20.0063 30.988 21.6566 31.3619 23.5871 31.3775C27.6973 31.4086 30.1883 29.8195 30.9045 26.7191C31.2003 25.4416 31.0446 24.1018 30.4374 22.9021C29.9859 22.0297 28.3667 20.4717 27.4949 20.0978C27.1368 19.9576 25.3464 19.3967 23.5093 18.867C19.8194 17.8076 19.0566 17.5271 18.9164 17.1688C18.6518 16.4677 19.3368 16.047 20.7224 16.047C22.7775 16.047 24.9883 16.9195 26.0937 18.1503L26.5763 18.6956H28.5536H30.5152V15.5018V12.3079H28.4913H26.4673V12.8532C26.4673 13.1492 26.4051 13.3985 26.3116 13.3985C26.2338 13.3985 25.829 13.196 25.4242 12.9623C25.0194 12.713 24.1943 12.3858 23.5871 12.23C22.1392 11.8561 19.3835 11.7782 18.0757 12.0742Z" fill="white"/>
<path d="M39.2328 12.0589C36.7262 12.6353 35.1849 13.4143 34.0172 14.6607C32.4292 16.39 31.7441 18.4933 31.7441 21.7339C31.7441 24.1643 32.1022 25.6755 33.0519 27.2958C34.0172 28.9317 36.0567 30.3183 38.5477 31.035C40.2447 31.5179 43.3741 31.5179 45.2268 31.0194C49.7417 29.8197 51.8591 26.9063 51.8902 21.8118C51.937 16.5926 49.8663 13.6324 45.2735 12.2926C43.8567 11.8875 40.525 11.7473 39.2328 12.0589ZM43.234 16.686C43.9346 16.9509 44.5106 17.6208 44.7597 18.4466C45.0399 19.3813 45.0867 23.8995 44.822 24.8498C44.5885 25.7067 43.9813 26.2987 43.0627 26.5636C42.0819 26.8596 41.6615 26.8596 40.6495 26.548C39.513 26.2208 39.1393 25.769 38.828 24.3357C38.4543 22.6687 38.5944 18.8672 39.0459 17.9636C39.2328 17.6208 39.4819 17.2625 39.6064 17.1534C40.2914 16.577 42.2843 16.3277 43.234 16.686Z" fill="white"/>
<path d="M0 14.3334V16.6703H1.4012H2.8024V21.5779V26.4855H1.4012H0V28.7446V31.0037H6.04072H12.0814V28.7758L12.0659 26.5634L10.7114 26.5167L9.34132 26.47V25.0366C9.34132 24.2421 9.31018 22.0453 9.29461 20.1446L9.26347 16.6859L10.6647 16.6392L12.0659 16.5924L12.1126 14.2866L12.1593 11.9964H6.08742H0V14.3334Z" fill="white"/>
<path d="M7.81565 34.1508C8.76535 35.5218 11.2097 37.9211 12.8444 39.074C15.1797 40.741 18.4647 42.1276 21.4073 42.7041C23.0731 43.0312 27.8995 43.0001 29.5809 42.6417C35.139 41.4577 39.8875 38.3262 43.1103 33.6834L43.4528 33.1849H43.0947C42.8144 33.1849 42.4408 33.512 41.6312 34.5247C40.4791 35.9736 38.6731 37.703 38.3306 37.703C38.0192 37.703 36.1198 36.6124 36.1198 36.441C36.1198 36.3631 36.4312 35.9113 36.836 35.4283C37.521 34.587 38.2995 33.4341 38.2995 33.2627C38.2995 33.216 38.1282 33.1849 37.9258 33.1849C37.6612 33.1849 37.4432 33.3562 37.1941 33.7613C36.9917 34.0729 36.5091 34.7272 36.0887 35.2258L35.3414 36.1294L33.5198 35.4906C32.5079 35.1323 31.6671 34.8363 31.636 34.8207C31.6204 34.7896 31.7294 34.4312 31.9007 33.9794L32.2276 33.1849H31.8695C31.6049 33.1849 31.4336 33.3562 31.1689 33.9015C30.842 34.5714 30.7797 34.6182 30.3127 34.5403C30.0324 34.478 28.8803 34.3222 27.7594 34.182C25.7821 33.9171 25.6887 33.8859 25.6887 33.5432C25.6887 33.2627 25.5953 33.1849 25.2995 33.1849C24.9881 33.1849 24.9103 33.2627 24.9103 33.5743C24.9103 33.995 25.0037 33.9638 22.2636 34.2754C21.3606 34.3689 20.4576 34.4935 20.2396 34.5403C19.8971 34.6026 19.8037 34.5091 19.4923 33.9015C19.2276 33.3251 19.0719 33.1849 18.7606 33.1849H18.3713L18.7606 33.9483C18.9785 34.3845 19.0875 34.7584 19.0097 34.8051C18.9474 34.8519 18.0911 35.1635 17.1103 35.5062L15.351 36.1294L14.9306 35.7399C14.6971 35.5062 14.1677 34.8519 13.7474 34.2599C13.2025 33.4964 12.9067 33.2004 12.6576 33.1849C12.4552 33.1849 12.2995 33.2316 12.2995 33.2783C12.2995 33.4185 13.2492 34.7584 13.9186 35.5841C14.6504 36.4722 14.6192 36.5656 13.2803 37.3291L12.3306 37.8588L11.3342 37.0175C10.4001 36.2073 9.54379 35.2725 8.42283 33.8392C8.06475 33.3874 7.80008 33.1849 7.53541 33.1849C7.14619 33.1849 7.14619 33.2004 7.81565 34.1508ZM24.9258 35.6309C24.9414 37.0954 24.9103 39.4635 24.8791 39.4946C24.848 39.5258 24.4432 39.5881 23.9606 39.6348L23.0887 39.7439L22.5282 38.9805C21.454 37.5316 20.2396 35.4595 20.3642 35.3348C20.5354 35.1635 23.042 34.774 24.1007 34.7584L24.9103 34.7428L24.9258 35.6309ZM28.7091 34.9765C29.5653 35.1012 30.2971 35.2414 30.3282 35.2881C30.4683 35.4127 29.9234 36.441 29.0204 37.7809C27.5881 39.8997 27.7594 39.7595 26.654 39.6348L25.6887 39.5258V37.1421V34.7428H26.436C26.8408 34.7428 27.8683 34.8519 28.7091 34.9765ZM19.8971 36.2073C20.0995 36.5812 20.7222 37.5783 21.2671 38.4196C22.2013 39.8218 22.2636 39.962 22.0144 40.149C21.3761 40.6164 20.7845 40.5696 19.8192 39.962C18.527 39.1363 16.036 37.0798 16.036 36.8461C16.036 36.737 16.5965 36.441 17.3282 36.1762C18.0288 35.9269 18.7139 35.6776 18.8384 35.6309C19.3522 35.4439 19.5546 35.553 19.8971 36.2073ZM32.2432 35.7711C33.333 36.0983 34.563 36.6124 34.563 36.7682C34.563 37.1888 30.2504 40.5073 29.6899 40.5073C29.3474 40.5073 28.4911 40.1334 28.4911 39.9776C28.4911 39.8997 28.8336 39.3388 29.2384 38.7312C29.6588 38.1236 30.2659 37.1577 30.5929 36.5656C30.9354 35.9892 31.2468 35.5218 31.2935 35.5218C31.3558 35.5218 31.7761 35.6309 32.2432 35.7711ZM15.9893 37.8588C17.0168 38.7935 18.3246 39.8062 19.3366 40.445C20.1306 40.928 20.2552 41.1772 19.8192 41.4265C19.1342 41.8004 13.1402 38.9805 13.2647 38.3417C13.2959 38.1704 14.8216 37.1109 15.0863 37.0798C15.1174 37.0798 15.5222 37.4381 15.9893 37.8588ZM36.4935 37.5939C37.0073 37.8743 37.4432 38.1859 37.4743 38.2794C37.5989 38.6222 35.248 40.0088 33.0683 40.8812C31.5426 41.4888 30.9665 41.5667 30.6863 41.224C30.5462 41.0526 30.7953 40.8189 31.9474 39.9776C32.7414 39.4167 33.8468 38.5287 34.4073 38.0146C34.9677 37.5004 35.4504 37.0954 35.4971 37.0798C35.5438 37.0798 35.9953 37.3135 36.4935 37.5939ZM27.1677 40.4294C28.3665 40.6943 29.8923 41.3798 29.8923 41.6914C29.8923 42.0341 27.7749 42.299 25.1438 42.2678C22.6839 42.2522 20.7689 41.9874 20.8001 41.6758C20.8312 41.4109 22.4504 40.6631 23.5091 40.445C24.8324 40.149 25.8444 40.149 27.1677 40.4294Z" fill="white"/>
</g>
<defs>
<clipPath id="clip0_163_2239">
<rect width="52" height="43" fill="white"/>
</clipPath>
</defs>
</svg>
