<svg width="53" height="53" viewBox="0 0 53 53" fill="none" xmlns="http://www.w3.org/2000/svg">
<path d="M22.9908 1.88398C22.9391 2.01855 22.6182 2.85703 22.2662 3.75761C21.5312 5.68301 21.4691 5.79688 21.2621 5.79688C20.993 5.79688 18.8088 6.54219 17.8875 6.9459C17.3803 7.16328 16.6039 7.55664 16.1588 7.81543L15.341 8.28125L13.3639 7.40137C12.277 6.91484 11.3453 6.52148 11.3039 6.52148C11.2107 6.52148 6.52148 11.2107 6.52148 11.3039C6.52148 11.3453 6.91484 12.277 7.40137 13.3639L8.28125 15.341L7.81543 16.1588C7.55664 16.6039 7.16328 17.3803 6.9459 17.8875C6.54219 18.8088 5.79688 20.993 5.79688 21.2621C5.79688 21.4691 5.77617 21.4795 3.62305 22.318L1.70801 23.0529V26.5V29.9471L3.62305 30.682C5.77617 31.5205 5.79688 31.5309 5.79688 31.7379C5.79688 32.007 6.54219 34.1912 6.9459 35.1125C7.16328 35.6197 7.55664 36.3961 7.81543 36.8412L8.28125 37.659L7.40137 39.6361C6.91484 40.723 6.52148 41.6547 6.52148 41.6961C6.52148 41.7893 11.2107 46.4785 11.3039 46.4785C11.3453 46.4785 12.277 46.0852 13.3639 45.5986L15.341 44.7188L16.1588 45.1846C16.6039 45.4434 17.3803 45.8367 17.8875 46.0541C18.8088 46.4578 20.993 47.2031 21.2621 47.2031C21.4691 47.2031 21.4795 47.2238 22.318 49.377L23.0529 51.292H26.5H29.9471L30.682 49.377C31.5205 47.2238 31.5309 47.2031 31.7379 47.2031C32.0277 47.2031 34.2223 46.4475 35.216 46.0127C35.7646 45.7643 36.541 45.3812 36.9344 45.1432L37.659 44.7188L39.6361 45.5986C40.723 46.0852 41.6547 46.4785 41.6961 46.4785C41.7893 46.4785 46.4785 41.7893 46.4785 41.6961C46.4785 41.6547 46.0852 40.723 45.5986 39.6361L44.7188 37.659L45.1846 36.8412C45.4434 36.3961 45.8367 35.6197 46.0541 35.1125C46.4578 34.1912 47.2031 32.007 47.2031 31.7379C47.2031 31.5309 47.2238 31.5205 49.377 30.682L51.292 29.9471V26.5V23.0529L49.3563 22.3076C47.1824 21.4588 47.2031 21.4691 47.2031 21.2621C47.2031 20.9723 46.4475 18.7777 46.0127 17.784C45.7643 17.2354 45.3813 16.459 45.1432 16.0656L44.7188 15.341L45.5986 13.3639C46.0852 12.277 46.4785 11.3453 46.4785 11.3039C46.4785 11.2107 41.7893 6.52148 41.6961 6.52148C41.6547 6.52148 40.723 6.91484 39.6361 7.40137L37.659 8.28125L36.9344 7.85683C36.541 7.61875 35.7646 7.23574 35.216 6.9873C34.2223 6.55254 32.0277 5.79688 31.7379 5.79688C31.5309 5.79688 31.5205 5.77617 30.682 3.62305L29.9471 1.70801L26.5104 1.67695L23.084 1.65625L22.9908 1.88398ZM34.1809 11.4281L41.7686 14.6889L41.7996 20.7238C41.841 29.0361 41.7168 30.5889 40.8162 33.3734C40.3504 34.8123 39.2324 37.0275 38.3215 38.2904C36.2512 41.1889 33.1975 43.5594 29.9264 44.8326C28.8912 45.2363 26.9555 45.7539 26.5 45.7539C26.3033 45.7539 25.6201 45.6193 24.999 45.4434C21.6451 44.5531 18.757 42.8244 16.3348 40.2779C13.9539 37.7729 12.2873 34.5846 11.5938 31.1789C11.2521 29.502 11.1693 27.2039 11.2004 20.7238L11.2314 14.6889L18.7881 11.4385C22.9494 9.64766 26.3965 8.18808 26.4689 8.18808C26.5311 8.17773 29.9988 9.6373 34.1809 11.4281Z" fill="white"/>
<path d="M20.3409 14.016L14.2335 16.6349L14.2024 21.7486C14.1714 27.0693 14.2542 29.2949 14.544 30.6924C15.3825 34.7088 17.7634 38.2386 21.169 40.4953C22.6286 41.4683 24.0054 42.0894 25.6409 42.5345C26.5829 42.783 26.6139 42.783 28.2081 42.2654C32.6903 40.8162 36.4376 37.0793 37.9386 32.5763C38.7253 30.2058 38.8391 28.7773 38.7977 21.7486L38.7667 16.6349L32.7628 14.0574C29.4606 12.6496 26.6864 11.4695 26.6036 11.4385C26.5208 11.4177 23.7052 12.5771 20.3409 14.016ZM28.6739 18.022C30.4233 18.4258 32.297 19.5851 33.4667 20.9722C34.8538 22.6181 35.568 24.3779 35.6819 26.4689C35.92 30.6095 33.2804 34.45 29.3364 35.7129C23.9018 37.4519 18.3016 33.9842 17.3804 28.3115C17.2354 27.3695 17.3079 25.6719 17.546 24.792C18.2706 22.0488 20.0096 19.906 22.5147 18.6845C24.4919 17.7218 26.4794 17.5045 28.6739 18.022Z" fill="white"/>
<path d="M30.1748 22.8872C30.0609 22.9494 28.9119 24.057 27.618 25.3509L25.2578 27.6904L24.1502 26.5828C23.5291 25.9824 22.9287 25.4337 22.8045 25.3716C21.9764 24.9576 20.8066 25.6925 20.8066 26.6345C20.8066 27.2038 21.1172 27.6076 22.8355 29.3156C24.2848 30.7337 24.6471 31.0546 24.968 31.1064C25.8064 31.2617 25.8375 31.2306 28.9637 28.0734C30.5785 26.4378 31.9656 24.9576 32.0484 24.7712C32.2451 24.3261 32.2348 23.9328 32.007 23.5083C31.6758 22.8976 30.7441 22.5871 30.1748 22.8872Z" fill="white"/>
</svg>
