<svg width="50" height="50" viewBox="0 0 50 50" fill="none" xmlns="http://www.w3.org/2000/svg">
<path d="M20.9569 2.2948C19.8143 2.76355 19.1503 3.5741 18.9354 4.77527C18.7889 5.60535 18.8768 6.17176 19.2479 6.92371C19.5897 7.6073 20.0389 8.03699 20.8006 8.38855C21.5331 8.73035 22.6268 8.74011 23.4764 8.40808C24.1795 8.12488 24.9217 7.43152 25.2245 6.75769C25.5467 6.05457 25.5272 4.63855 25.1854 3.90613C24.9217 3.33972 24.3553 2.72449 23.8768 2.47058C22.9979 2.00183 21.826 1.93347 20.9569 2.2948Z" fill="#2E4292"/>
<path d="M15.7325 9.61921C13.9063 10.0977 13.4082 10.3028 12.92 10.7715C12.7442 10.9376 12.168 11.836 11.6504 12.7637C10.8106 14.2383 10.6641 14.4532 10.4493 14.4532C10.3125 14.463 10.1172 14.5313 10 14.629C9.80473 14.795 9.74613 14.8731 9.23832 15.7032L8.98442 16.1133L8.46684 15.8497C8.06645 15.6348 7.83207 15.5762 7.32426 15.5762C6.44535 15.5762 5.9766 15.8497 5.26371 16.7969C4.55082 17.7247 3.25199 19.9512 3.11528 20.4591C2.91996 21.1719 3.1934 22.1387 3.73051 22.6173C4.04301 22.9102 9.7266 26.2794 10.1563 26.4356C10.8789 26.6895 11.7579 26.543 12.3536 26.0548C12.8516 25.6446 15.0098 22.002 15.0977 21.4356C15.2344 20.5079 14.834 19.6094 14.1016 19.1798L13.6621 18.9258L13.877 18.5645C14.4336 17.6661 14.4727 17.5489 14.4239 16.963C14.375 16.4356 14.4043 16.3282 14.8926 15.3419C15.1758 14.7559 15.5274 14.1993 15.6739 14.0821C15.9375 13.877 16.5625 13.7012 16.6602 13.7989C16.6895 13.8282 16.4454 15.2051 16.1133 16.8555L15.5079 19.8633L15.625 20.752C15.6836 21.2305 15.8106 22.461 15.9082 23.4864L16.084 25.3419L14.3946 27.8516C13.4668 29.2383 12.6563 30.5274 12.5977 30.7227C12.5293 30.9376 12.5 31.3087 12.5293 31.6212C12.6758 33.0567 14.4336 33.877 15.6446 33.0762C16.1231 32.7637 19.9707 26.9727 20.1172 26.3477C20.2051 25.9962 20.2051 25.586 20.1172 24.6583C20.0489 23.9844 20.0098 23.418 20.0293 23.3985C20.0489 23.379 20.3809 23.4864 20.752 23.6329C21.3575 23.877 21.4356 23.9356 21.4063 24.1309C21.3868 24.2579 21.2207 25.2344 21.0352 26.2989C20.8496 27.3633 20.7032 28.3399 20.7032 28.4766C20.7032 28.7989 20.9571 29.3848 21.2207 29.668C22.0606 30.5762 23.7207 30.5079 24.3164 29.5411C24.5704 29.1309 25.625 23.1641 25.5371 22.6661C25.4395 22.1192 25.1172 21.4649 24.7754 21.1133C24.5996 20.9278 23.9942 20.5176 23.418 20.1954C22.8321 19.8731 22.3633 19.5704 22.3633 19.5216C22.3633 19.4141 23.0371 16.2501 23.1055 15.9864C23.1543 15.8497 23.2715 15.9278 23.8086 16.4063C24.4922 17.0216 25.3614 17.5294 26.2696 17.8321C26.709 17.9883 27.0996 18.0176 28.418 18.0176C29.3067 18.0176 30.1954 17.9786 30.3907 17.9395C31.7579 17.6466 32.295 15.5372 31.2696 14.4923C30.7618 13.9844 30.3516 13.8673 28.9063 13.8673C27.1778 13.8575 27.0899 13.8184 25.8301 12.4122C24.7657 11.2208 23.9551 10.5469 23.1934 10.2051C22.9297 10.088 22.0215 9.82428 21.1914 9.61921C20.0196 9.336 19.4239 9.24811 18.5547 9.20905C17.4707 9.17975 17.3633 9.18952 15.7325 9.61921ZM12.0899 17.2852L12.5977 17.4024L12.4317 17.7051C12.3536 17.8809 12.2657 18.0274 12.2559 18.0469C12.2364 18.0665 11.8067 17.8223 11.2989 17.5098L10.3614 16.9337L10.5567 16.6309L10.752 16.3282L11.1719 16.7383C11.4746 17.0508 11.7188 17.1876 12.0899 17.2852ZM10.3516 18.8673C11.8848 19.7852 13.2129 20.5958 13.3106 20.6739C13.4668 20.8204 13.545 21.3868 13.418 21.504C13.3887 21.543 11.8457 20.6544 10 19.5508L6.6309 17.5294L6.89457 17.3048C7.07035 17.1485 7.20707 17.0997 7.35356 17.1485C7.47074 17.1876 8.8184 17.9591 10.3516 18.8673Z" fill="#2E4292"/>
<path d="M38.7695 22.2852C38.5156 22.5586 38.5156 22.9883 38.7891 23.623C38.9062 23.9258 38.9551 24.1602 38.9062 24.209C38.8574 24.2578 30.8887 27.4902 21.1914 31.3965C10.625 35.6543 3.49609 38.5742 3.39844 38.6914C3.30078 38.7988 3.22266 38.9941 3.22266 39.1309C3.22266 39.4922 4.9707 43.7598 5.23437 44.0332C5.37109 44.1797 5.56641 44.2676 5.73242 44.2676C5.87891 44.2676 13.8965 41.0938 23.5352 37.2266C33.1738 33.3594 41.123 30.1758 41.2012 30.1562C41.2891 30.1367 41.416 30.3125 41.543 30.6348C41.9531 31.6406 42.5 31.9043 43.0566 31.3672C43.4082 31.0352 46.7773 25.1465 46.8457 24.7559C46.9434 24.1602 46.8262 24.1016 43.0664 23.0469C41.1621 22.5098 39.4629 22.0703 39.2871 22.0703C39.0918 22.0703 38.8965 22.1484 38.7695 22.2852Z" fill="#2E4292"/>
<path d="M38.9648 34.2773C38.7695 34.4727 38.7695 34.5996 38.7695 42.2363V50H42.8711H46.9727L46.9531 42.2461C46.9238 34.7754 46.9141 34.4824 46.7383 34.2871C46.5527 34.082 46.4844 34.082 42.8516 34.082C39.2871 34.082 39.1504 34.0918 38.9648 34.2773Z" fill="#2E4292"/>
<path d="M27.7441 39.3164C27.5391 39.5703 27.5391 39.668 27.5391 44.7852V50H31.6406H35.7422V44.7852C35.7422 39.668 35.7422 39.5703 35.5371 39.3164L35.3418 39.0625H31.6406H27.9395L27.7441 39.3164Z" fill="#2E4292"/>
<path d="M16.5527 42.627L16.3086 42.8613V46.4355V50H20.4102H24.5117V46.4355V42.8613L24.2676 42.627L24.0332 42.3828H20.4102H16.7871L16.5527 42.627Z" fill="#2E4292"/>
<path d="M5.4003 45.8203C5.27335 45.8789 5.13663 46.0742 5.07804 46.2793C4.97061 46.6602 4.94132 49.5898 5.03897 49.8438C5.0878 49.9805 5.54679 50 9.14054 50H13.1835V48.0664C13.1835 47.0117 13.1444 46.0938 13.1054 46.0352C12.9003 45.7324 12.578 45.7031 9.11124 45.7129C6.81632 45.7129 5.53702 45.752 5.4003 45.8203Z" fill="#2E4292"/>
</svg>
