<svg width="50" height="50" viewBox="0 0 50 50" fill="none" xmlns="http://www.w3.org/2000/svg">
<path d="M20.9569 2.2948C19.8143 2.76355 19.1503 3.5741 18.9354 4.77527C18.7889 5.60535 18.8768 6.17176 19.2479 6.92371C19.5897 7.6073 20.0389 8.03699 20.8006 8.38855C21.5331 8.73035 22.6268 8.74011 23.4764 8.40808C24.1795 8.12488 24.9217 7.43152 25.2245 6.75769C25.5467 6.05457 25.5272 4.63855 25.1854 3.90613C24.9217 3.33972 24.3553 2.72449 23.8768 2.47058C22.9979 2.00183 21.826 1.93347 20.9569 2.2948Z" fill="white"/>
<path d="M15.732 9.61921C13.9058 10.0977 13.4078 10.3028 12.9195 10.7715C12.7437 10.9376 12.1675 11.836 11.6499 12.7637C10.8101 14.2383 10.6636 14.4532 10.4488 14.4532C10.3121 14.463 10.1167 14.5313 9.99955 14.629C9.80424 14.795 9.74565 14.8731 9.23783 15.7032L8.98393 16.1133L8.46635 15.8497C8.06596 15.6348 7.83158 15.5762 7.32377 15.5762C6.44486 15.5762 5.97611 15.8497 5.26322 16.7969C4.55033 17.7247 3.25151 19.9512 3.11479 20.4591C2.91947 21.1719 3.19291 22.1387 3.73002 22.6173C4.04252 22.9102 9.72611 26.2794 10.1558 26.4356C10.8785 26.6895 11.7574 26.543 12.3531 26.0548C12.8511 25.6446 15.0093 22.002 15.0972 21.4356C15.2339 20.5079 14.8335 19.6094 14.1011 19.1798L13.6617 18.9258L13.8765 18.5645C14.4331 17.6661 14.4722 17.5489 14.4234 16.963C14.3746 16.4356 14.4038 16.3282 14.8921 15.3419C15.1753 14.7559 15.5269 14.1993 15.6734 14.0821C15.9371 13.877 16.5621 13.7012 16.6597 13.7989C16.689 13.8282 16.4449 15.2051 16.1128 16.8555L15.5074 19.8633L15.6246 20.752C15.6831 21.2305 15.8101 22.461 15.9078 23.4864L16.0835 25.3419L14.3941 27.8516C13.4663 29.2383 12.6558 30.5274 12.5972 30.7227C12.5288 30.9376 12.4996 31.3087 12.5288 31.6212C12.6753 33.0567 14.4331 33.877 15.6441 33.0762C16.1226 32.7637 19.9703 26.9727 20.1167 26.3477C20.2046 25.9962 20.2046 25.586 20.1167 24.6583C20.0484 23.9844 20.0093 23.418 20.0288 23.3985C20.0484 23.379 20.3804 23.4864 20.7515 23.6329C21.357 23.877 21.4351 23.9356 21.4058 24.1309C21.3863 24.2579 21.2203 25.2344 21.0347 26.2989C20.8492 27.3633 20.7027 28.3399 20.7027 28.4766C20.7027 28.7989 20.9566 29.3848 21.2203 29.668C22.0601 30.5762 23.7203 30.5079 24.316 29.5411C24.5699 29.1309 25.6245 23.1641 25.5367 22.6661C25.439 22.1192 25.1167 21.4649 24.7749 21.1133C24.5992 20.9278 23.9937 20.5176 23.4175 20.1954C22.8316 19.8731 22.3628 19.5704 22.3628 19.5216C22.3628 19.4141 23.0367 16.2501 23.105 15.9864C23.1538 15.8497 23.271 15.9278 23.8081 16.4063C24.4917 17.0216 25.3609 17.5294 26.2691 17.8321C26.7085 17.9883 27.0992 18.0176 28.4175 18.0176C29.3062 18.0176 30.1949 17.9786 30.3902 17.9395C31.7574 17.6466 32.2945 15.5372 31.2691 14.4923C30.7613 13.9844 30.3511 13.8673 28.9058 13.8673C27.1773 13.8575 27.0894 13.8184 25.8296 12.4122C24.7652 11.2208 23.9546 10.5469 23.1929 10.2051C22.9292 10.088 22.021 9.82428 21.191 9.61921C20.0191 9.336 19.4234 9.24811 18.5542 9.20905C17.4703 9.17975 17.3628 9.18952 15.732 9.61921ZM12.0894 17.2852L12.5972 17.4024L12.4312 17.7051C12.3531 17.8809 12.2652 18.0274 12.2554 18.0469C12.2359 18.0665 11.8062 17.8223 11.2984 17.5098L10.3609 16.9337L10.5562 16.6309L10.7515 16.3282L11.1714 16.7383C11.4742 17.0508 11.7183 17.1876 12.0894 17.2852ZM10.3511 18.8673C11.8843 19.7852 13.2124 20.5958 13.3101 20.6739C13.4663 20.8204 13.5445 21.3868 13.4175 21.504C13.3882 21.543 11.8453 20.6544 9.99955 19.5508L6.63041 17.5294L6.89408 17.3048C7.06986 17.1485 7.20658 17.0997 7.35307 17.1485C7.47026 17.1876 8.81791 17.9591 10.3511 18.8673Z" fill="white"/>
<path d="M38.7695 22.2852C38.5156 22.5586 38.5156 22.9883 38.7891 23.623C38.9062 23.9258 38.9551 24.1602 38.9062 24.209C38.8574 24.2578 30.8887 27.4902 21.1914 31.3965C10.625 35.6543 3.49609 38.5742 3.39844 38.6914C3.30078 38.7988 3.22266 38.9941 3.22266 39.1309C3.22266 39.4922 4.9707 43.7598 5.23437 44.0332C5.37109 44.1797 5.56641 44.2676 5.73242 44.2676C5.87891 44.2676 13.8965 41.0938 23.5352 37.2266C33.1738 33.3594 41.123 30.1758 41.2012 30.1562C41.2891 30.1367 41.416 30.3125 41.543 30.6348C41.9531 31.6406 42.5 31.9043 43.0566 31.3672C43.4082 31.0352 46.7773 25.1465 46.8457 24.7559C46.9434 24.1602 46.8262 24.1016 43.0664 23.0469C41.1621 22.5098 39.4629 22.0703 39.2871 22.0703C39.0918 22.0703 38.8965 22.1484 38.7695 22.2852Z" fill="white"/>
<path d="M38.9648 34.2773C38.7695 34.4727 38.7695 34.5996 38.7695 42.2363V50H42.8711H46.9727L46.9531 42.2461C46.9238 34.7754 46.9141 34.4824 46.7383 34.2871C46.5527 34.082 46.4844 34.082 42.8516 34.082C39.2871 34.082 39.1504 34.0918 38.9648 34.2773Z" fill="white"/>
<path d="M27.7441 39.3164C27.5391 39.5703 27.5391 39.668 27.5391 44.7852V50H31.6406H35.7422V44.7852C35.7422 39.668 35.7422 39.5703 35.5371 39.3164L35.3418 39.0625H31.6406H27.9395L27.7441 39.3164Z" fill="white"/>
<path d="M16.5527 42.627L16.3086 42.8613V46.4355V50H20.4102H24.5117V46.4355V42.8613L24.2676 42.627L24.0332 42.3828H20.4102H16.7871L16.5527 42.627Z" fill="white"/>
<path d="M5.4003 45.8203C5.27335 45.8789 5.13663 46.0742 5.07804 46.2793C4.97061 46.6602 4.94132 49.5898 5.03897 49.8438C5.0878 49.9805 5.54679 50 9.14054 50H13.1835V48.0664C13.1835 47.0117 13.1444 46.0938 13.1054 46.0352C12.9003 45.7324 12.578 45.7031 9.11124 45.7129C6.81632 45.7129 5.53702 45.752 5.4003 45.8203Z" fill="white"/>
</svg>
