<svg width="50" height="50" viewBox="0 0 50 50" fill="none" xmlns="http://www.w3.org/2000/svg">
<g clip-path="url(#clip0_163_2216)">
<path d="M3.56248 0.224609C3.37909 0.341797 3.15709 0.595703 3.07022 0.78125C2.90614 1.10352 2.89648 2.28516 2.89648 21.2109V41.3086H4.39256H5.88863V22.1191V2.92969H14.5755H23.2624V22.1191V41.3086H24.7102H26.158V22.1191V2.92969H34.8448H43.5317V22.1191V41.3086H45.0278H46.5238V21.2109C46.5238 2.28516 46.5142 1.10352 46.3501 0.78125C46.2632 0.595703 46.0412 0.341797 45.8579 0.224609L45.5297 0H24.7102H3.89065L3.56248 0.224609Z" fill="white"/>
<path d="M8.6875 23.5352V41.3086H14.527H20.3665V23.5352V5.76172H14.527H8.6875V23.5352Z" fill="white"/>
<path d="M29.0527 10.8398V15.9277L30.211 17.3828C30.848 18.1836 31.4754 19.0039 31.6105 19.1992L31.8518 19.5605V22.6465V25.7422L33.4155 27.5879L34.9888 29.4238L37.8072 26.5234C39.3611 24.9219 40.6352 23.5742 40.6352 23.5156C40.6352 23.457 40.2684 22.3535 39.8148 21.0547C39.3322 19.668 38.9944 18.5449 38.9944 18.3301C38.9944 17.8027 39.1971 17.5195 40.0175 16.8652L40.7317 16.2891V11.0254V5.76172H34.8922H29.0527V10.8398Z" fill="white"/>
<path d="M29.0527 34.5215V41.3086H30.5778H32.0931L34.2166 38.7012C35.3845 37.2754 36.398 36.0254 36.4655 35.9277C36.5717 35.7812 36.4366 35.5762 35.4521 34.3555C34.8343 33.584 33.3286 31.7871 32.1124 30.3418L29.8925 27.7344H29.4774H29.0527V34.5215Z" fill="white"/>
<path d="M37.5265 30.8009L36.793 31.6017L37.6134 32.6075C38.0574 33.1544 38.4628 33.5939 38.5014 33.5743C38.5979 33.5353 40.2484 31.7774 40.2484 31.7091C40.2484 31.631 38.4145 29.9806 38.3373 29.9903C38.2987 29.9903 37.9416 30.3517 37.5265 30.8009Z" fill="white"/>
<path d="M39.9107 36.2012C38.9648 37.2559 35.8086 41.123 35.8086 41.2207C35.8086 41.2695 36.9186 41.3086 38.2699 41.3086H40.7312V38.3789C40.7312 36.7676 40.7022 35.4492 40.6539 35.4492C40.6153 35.4492 40.2775 35.791 39.9107 36.2012Z" fill="white"/>
<path d="M0.772166 44.3164C0.55982 44.4336 0.347475 44.6582 0.221998 44.9219C0.0193041 45.3223 0 45.4785 0 47.1191C0 49.0918 0.0675645 49.3652 0.675645 49.7852L0.994163 50H24.7093H48.4244L48.743 49.7852C49.351 49.3652 49.4186 49.0918 49.4186 47.1191C49.4186 45.4785 49.3993 45.3223 49.1966 44.9219C49.0711 44.6582 48.8588 44.4336 48.6464 44.3164C48.3279 44.1504 47.3627 44.1406 24.7093 44.1406C2.05589 44.1406 1.09068 44.1504 0.772166 44.3164Z" fill="white"/>
</g>
<defs>
<clipPath id="clip0_163_2216">
<rect width="49.4186" height="50" fill="white"/>
</clipPath>
</defs>
</svg>
