<svg width="56" height="56" viewBox="0 0 56 56" fill="none" xmlns="http://www.w3.org/2000/svg">
<path d="M9.07804 6.19057C5.67648 8.14838 2.83273 9.83276 2.7671 9.93119C2.42804 10.3687 2.5921 10.7953 4.01398 13.2671C4.76866 14.5906 5.3921 15.7281 5.3921 15.7937C5.3921 15.8593 5.0421 16.4937 4.62648 17.1937C4.19991 17.8937 3.79523 18.7031 3.70773 18.9984C3.48898 19.764 3.51085 21.4593 3.75148 22.2031C3.86085 22.5312 5.31554 25.1671 6.98898 28.0546C10.1609 33.5562 10.2593 33.6874 10.8937 33.5343C11.4952 33.3812 12.1843 32.5281 12.3702 31.7187C12.5562 30.9203 12.3812 30.4937 10.8171 27.7484C9.97491 26.2937 9.29679 24.9921 9.29679 24.8499C9.29679 24.5656 9.74523 24.0624 9.99679 24.0624C10.4671 24.0624 10.7187 24.3687 11.7687 26.1734C14.1202 30.264 13.978 30.0453 14.0546 29.6843C14.2405 28.8093 14.3827 28.4812 14.7765 28.0546C15.378 27.3984 15.9687 27.1906 17.0077 27.2562C17.653 27.2999 17.9702 27.3874 18.4734 27.6499L19.1296 27.989L19.1624 24.9046L19.1952 21.8203L19.5015 21.1968C19.8624 20.464 20.3765 19.9718 21.1968 19.5999C21.689 19.3812 21.9077 19.3484 22.6187 19.3812C23.1218 19.4031 23.614 19.4906 23.8327 19.6109C24.3359 19.8624 24.3577 19.8624 24.5984 19.3812C24.839 18.9109 25.6155 18.1562 26.1515 17.8718C26.3812 17.7515 26.8624 17.664 27.4312 17.6312C27.9234 17.6093 28.328 17.5546 28.328 17.5328C28.328 17.4999 27.4312 15.9249 26.3374 14.0218C24.6968 11.189 24.2155 10.4453 23.6687 9.88744C22.8046 9.02338 21.6343 8.42182 20.278 8.15932L19.2937 7.96244L17.7843 5.35932C16.964 3.92651 16.2093 2.72338 16.1218 2.69057C15.564 2.47182 15.2468 2.63588 9.07804 6.19057Z" fill="#2E4292"/>
<path d="M39.8453 2.69068C39.7688 2.72349 39.0359 3.92661 38.2156 5.35943L36.7063 7.96255L35.7219 8.15943C34.3656 8.42193 33.1953 9.02349 32.3313 9.88755C31.8172 10.4126 31.3578 11.0907 30.3297 12.8844C29.5859 14.1641 28.9844 15.2579 28.9844 15.3126C28.9844 15.3672 29.4328 16.1876 29.9797 17.1391C31.5109 19.7969 31.3578 19.5891 31.6969 19.4579C31.8609 19.3922 32.2984 19.3485 32.6813 19.3485C34.3438 19.3485 35.7984 20.7594 35.9516 22.5422C35.9844 22.9032 36.05 23.1876 36.0938 23.1876C36.1375 23.1876 36.3672 23.111 36.5859 23.0126C36.8156 22.9251 37.3188 22.8376 37.7016 22.8376C38.2703 22.8376 38.5328 22.9032 39.1016 23.1766C39.9 23.5704 40.3922 24.0735 40.7859 24.9376C41.0484 25.5282 41.0594 25.6157 41.125 28.5141L41.1797 31.4782L43.2469 27.8907C45.2813 24.3688 45.5 24.0626 46.0031 24.0626C46.2547 24.0626 46.7031 24.5657 46.7031 24.861C46.7031 24.9922 46.1781 26.0204 45.5438 27.136C43.5203 30.6469 43.5969 30.4719 43.5969 31.2157C43.6078 32.6047 44.7234 33.8188 45.6422 33.425C45.9484 33.3047 46.3641 32.6375 49.0219 28.0438C50.6844 25.1672 52.1281 22.5313 52.2484 22.2032C52.5219 21.3829 52.5219 19.6329 52.2484 18.8454C52.1391 18.5391 51.7234 17.7516 51.3297 17.0954C50.9359 16.4501 50.6078 15.8594 50.6078 15.7938C50.6078 15.7282 51.2313 14.5907 51.9859 13.2672C53.4078 10.7954 53.5719 10.3688 53.2438 9.9313C53.1672 9.83286 50.3234 8.14849 46.9219 6.19068C40.6656 2.57036 40.425 2.46099 39.8453 2.69068Z" fill="#2E4292"/>
<path d="M26.6109 19.4797C26.425 19.6 26.1625 19.9062 26.0422 20.1688C25.8125 20.6172 25.8125 20.7922 25.8125 27.5406C25.8125 34.3109 25.8125 34.4531 25.5938 34.6719C25.2984 34.9672 24.7078 34.9563 24.4344 34.6609C24.2375 34.4422 24.2266 34.1359 24.1719 28.2297C24.1172 22.4875 24.1062 22.0063 23.9203 21.7328C23.2312 20.6828 21.525 20.7703 20.9781 21.875C20.7922 22.225 20.7812 22.8266 20.7812 29.5969C20.7812 36.8594 20.7812 36.9469 20.5516 37.2313C20.2562 37.6031 19.7094 37.625 19.3812 37.2641C19.1625 37.0344 19.1516 36.9031 19.1187 33.7969L19.0859 30.5703L18.7797 30.0453C18.3422 29.3125 17.7516 28.9516 16.8984 28.8969C16.3078 28.8531 16.1766 28.8859 15.9797 29.0828C15.75 29.3125 15.75 29.3453 15.75 36.1375C15.75 42.6125 15.7609 42.9953 15.9688 43.6516C16.4281 45.1609 17.2375 46.0141 19.2062 47.0969L20.5625 47.8516V50.3891C20.5625 52.7953 20.5734 52.9484 20.7812 53.1562C21 53.375 21.1422 53.375 28.4375 53.375C35.7328 53.375 35.875 53.375 36.0938 53.1562C36.3016 52.9484 36.3125 52.7953 36.3125 50.3234V47.7094L36.6734 47.4359C37.8656 46.5172 38.675 45.4234 39.1016 44.1438L39.375 43.3125L39.3531 34.3438L39.3203 25.375L38.9156 24.9703C38.5437 24.6094 38.4453 24.5656 37.8219 24.5219C37.2422 24.4891 37.0781 24.5219 36.7609 24.7406C35.9844 25.2766 35.9844 25.2437 35.9844 30.0891V34.4203L35.7328 34.65C35.3719 34.9891 34.8578 34.9672 34.5734 34.6063C34.3438 34.3219 34.3438 34.2234 34.3438 28.2844C34.3438 22.7609 34.3219 22.225 34.1469 21.875C33.6 20.7703 31.8937 20.6828 31.2047 21.7328C31.0188 22.0063 31.0078 22.4875 30.9531 28.2297C30.8984 34.1359 30.8875 34.4422 30.6906 34.6609C30.45 34.9344 29.8922 34.9672 29.575 34.7375C29.3781 34.5844 29.3672 34.3438 29.3125 27.4859C29.2578 20.4422 29.2578 20.3984 29.0172 20.0156C28.8859 19.8078 28.6344 19.5453 28.4594 19.4359C28 19.1734 27.0594 19.1844 26.6109 19.4797Z" fill="#2E4292"/>
</svg>
