<svg width="58" height="56" viewBox="0 0 58 56" fill="none" xmlns="http://www.w3.org/2000/svg">
<path d="M4.07773 17.2703C3.17148 17.5547 2.37852 18.2437 1.95937 19.1078L1.6875 19.6656L1.72148 28.8422L1.75547 38.0078L2.11797 38.9156C2.76367 40.5453 3.19414 41.0156 8.05391 45.6312L12.5738 49.9297V52.3906C12.5738 54.6547 12.5965 54.8844 12.8004 55.2125C12.925 55.4094 13.1855 55.6609 13.3895 55.7812C13.752 55.9891 13.9785 56 19.9937 56C25.907 56 26.2355 55.9891 26.5527 55.7922C26.7227 55.6828 26.9719 55.4422 27.0852 55.2781C27.2891 54.9719 27.3004 54.6437 27.3004 48.6609C27.3004 43.1922 27.2777 42.2953 27.1191 41.7703C26.7113 40.4578 26.5187 40.2281 22.9617 36.7937C19.8012 33.7531 19.4727 33.4797 18.623 33.0531C17.4789 32.4844 16.5387 32.2656 15.2359 32.2656C14.0125 32.2656 13.1516 32.4625 12.0414 32.9766C11.0672 33.4469 10.7613 33.775 10.7613 34.3766C10.7613 34.8141 10.8293 34.8797 14.4316 38.3797C18.2719 42.1094 18.3512 42.2187 18.1812 42.9734C18 43.7719 16.9012 44.2094 16.1762 43.7719C15.9723 43.6406 14.1937 41.9562 12.234 40.0203L8.66562 36.4984L8.60898 27.9562C8.55234 19.4687 8.55234 19.4141 8.30312 18.9766C7.99727 18.4078 7.31758 17.7625 6.73984 17.4672C6.25273 17.2266 4.61016 17.0953 4.07773 17.2703Z" fill="white"/>
<path d="M51.7695 17.2703C50.8746 17.5547 50.0703 18.2437 49.6625 19.0859L49.3906 19.6328V28.0328V36.4437L45.7996 39.9875C43.8172 41.9453 42.0273 43.6406 41.8234 43.7719C41.0984 44.2094 39.9996 43.7719 39.8184 42.9734C39.6484 42.2187 39.7277 42.1094 43.568 38.3797C47.193 34.8687 47.2383 34.8141 47.2383 34.3766C47.2383 33.7641 46.8758 33.3703 45.9129 32.9437C44.8027 32.4516 43.9305 32.2656 42.7637 32.2656C41.4609 32.2656 40.5207 32.4844 39.3766 33.0531C38.527 33.4797 38.1984 33.7531 35.0379 36.7937C31.4809 40.2281 31.2883 40.4578 30.8805 41.7703C30.7219 42.2953 30.6992 43.1922 30.6992 48.6609C30.6992 54.6437 30.7105 54.9719 30.9145 55.2781C31.0277 55.4422 31.277 55.6828 31.4469 55.7922C31.7641 55.9891 32.0926 56 38.0059 56C44.0211 56 44.2477 55.9891 44.6102 55.7812C44.8141 55.6609 45.0746 55.4094 45.1992 55.2125C45.4031 54.8844 45.4258 54.6547 45.4258 52.3906V49.9297L49.9457 45.6312C54.8055 41.0156 55.2359 40.5453 55.8816 38.9156L56.2441 38.0078V28.7109V19.4141L55.9949 18.9766C55.6891 18.4078 55.0094 17.7625 54.4316 17.4672C53.9445 17.2266 52.302 17.0953 51.7695 17.2703Z" fill="white"/>
<path d="M19.4285 28.5965C16.1759 28.5965 13.7227 27.6384 12.0137 26.0149L14.6047 22.8213C15.8727 23.939 17.6092 24.5512 19.3734 24.5512C21.3856 24.5512 22.3779 23.5931 22.3779 22.5019C22.3779 21.3043 21.4131 20.4526 19.5112 20.4526C18.0503 20.4526 16.8926 20.8518 15.8727 21.7833L12.5925 21.0115V10.5257H25.9337V14.5177H17.3336V17.9509C18.2157 17.1259 19.649 16.5404 21.2753 16.5404C24.3901 16.5404 27.2016 18.7493 27.2016 22.3156C27.2016 26.148 24.1971 28.5965 19.4285 28.5965Z" fill="white"/>
<path d="M38.5909 28.5965C32.9402 28.5965 28.6401 24.8705 28.6401 19.4147C28.6401 13.9322 32.9402 10.2329 38.5909 10.2329C43.0287 10.2329 45.3993 12.6548 46.6121 14.9968L42.5326 16.8598C41.9262 15.4492 40.355 14.2782 38.5909 14.2782C35.5864 14.2782 33.4639 16.5138 33.4639 19.4147C33.4639 22.3156 35.5864 24.5512 38.5909 24.5512C40.355 24.5512 41.9262 23.3802 42.5326 21.9696L46.6121 23.8326C45.4268 26.1214 43.0287 28.5965 38.5909 28.5965Z" fill="white"/>
</svg>
