<svg width="50" height="50" viewBox="0 0 50 50" fill="none" xmlns="http://www.w3.org/2000/svg">
<g clip-path="url(#clip0_57_7455)">
<path d="M3.5615 0.224609C3.37811 0.341797 3.15611 0.595703 3.06925 0.78125C2.90516 1.10352 2.89551 2.28516 2.89551 21.2109V41.3086H4.39158H5.88765V22.1191V2.92969H14.5745H23.2614V22.1191V41.3086H24.7092H26.157V22.1191V2.92969H34.8439H43.5307V22.1191V41.3086H45.0268H46.5229V21.2109C46.5229 2.28516 46.5132 1.10352 46.3491 0.78125C46.2623 0.595703 46.0403 0.341797 45.8569 0.224609L45.5287 0H24.7092H3.88967L3.5615 0.224609Z" fill="#2E4292"/>
<path d="M8.68701 23.5352V41.3086H14.5265H20.366V23.5352V5.76172H14.5265H8.68701V23.5352Z" fill="#2E4292"/>
<path d="M29.0527 10.8398V15.9277L30.211 17.3828C30.848 18.1836 31.4754 19.0039 31.6105 19.1992L31.8518 19.5605V22.6465V25.7422L33.4155 27.5879L34.9888 29.4238L37.8072 26.5234C39.3611 24.9219 40.6352 23.5742 40.6352 23.5156C40.6352 23.457 40.2684 22.3535 39.8148 21.0547C39.3322 19.668 38.9944 18.5449 38.9944 18.3301C38.9944 17.8027 39.1971 17.5195 40.0175 16.8652L40.7317 16.2891V11.0254V5.76172H34.8922H29.0527V10.8398Z" fill="#2E4292"/>
<path d="M29.0527 34.5215V41.3086H30.5778H32.0931L34.2166 38.7012C35.3845 37.2754 36.398 36.0254 36.4655 35.9277C36.5717 35.7812 36.4366 35.5762 35.4521 34.3555C34.8343 33.584 33.3286 31.7871 32.1124 30.3418L29.8925 27.7344H29.4774H29.0527V34.5215Z" fill="#2E4292"/>
<path d="M37.527 30.8008L36.7935 31.6015L37.6139 32.6074C38.0579 33.1543 38.4633 33.5937 38.5019 33.5742C38.5984 33.5351 40.2489 31.7773 40.2489 31.709C40.2489 31.6308 38.415 29.9805 38.3378 29.9902C38.2992 29.9902 37.9421 30.3515 37.527 30.8008Z" fill="#2E4292"/>
<path d="M39.9112 36.2012C38.9653 37.2559 35.8091 41.123 35.8091 41.2207C35.8091 41.2695 36.9191 41.3086 38.2704 41.3086H40.7316V38.3789C40.7316 36.7676 40.7027 35.4492 40.6544 35.4492C40.6158 35.4492 40.278 35.791 39.9112 36.2012Z" fill="#2E4292"/>
<path d="M0.772166 44.3164C0.55982 44.4336 0.347475 44.6582 0.221998 44.9219C0.0193041 45.3223 0 45.4785 0 47.1191C0 49.0918 0.0675645 49.3652 0.675645 49.7852L0.994163 50H24.7093H48.4244L48.743 49.7852C49.351 49.3652 49.4186 49.0918 49.4186 47.1191C49.4186 45.4785 49.3993 45.3223 49.1966 44.9219C49.0711 44.6582 48.8588 44.4336 48.6464 44.3164C48.3279 44.1504 47.3627 44.1406 24.7093 44.1406C2.05589 44.1406 1.09068 44.1504 0.772166 44.3164Z" fill="#2E4292"/>
</g>
<defs>
<clipPath id="clip0_57_7455">
<rect width="49.4186" height="50" fill="white"/>
</clipPath>
</defs>
</svg>
