<svg width="50" height="50" viewBox="0 0 50 50" fill="none" xmlns="http://www.w3.org/2000/svg">
<g clip-path="url(#clip0_163_2210)">
<path d="M21.0254 0.19524C20.498 0.50774 20.2441 1.22063 20.4102 1.86516C20.4688 2.08977 20.6934 2.4511 20.918 2.69524L21.3184 3.12493H20.8887C19.6582 3.12493 17.4316 3.55462 15.7324 4.11126C14.502 4.52141 12.1582 5.72258 11.1133 6.47454C8.47656 8.36907 6.60156 10.5273 5.18555 13.2812C3.85742 15.8691 3.125 18.7499 3.125 21.3866C3.125 22.1386 3.16406 22.373 3.32031 22.6366C3.88672 23.5546 5.3125 23.5839 5.86914 22.6855C6.04492 22.4023 6.10352 22.1191 6.16211 21.0546C6.25 19.6288 6.34766 19.0136 6.69922 17.7148C7.36328 15.2245 8.66211 12.9491 10.5469 11.0058C13.0469 8.40813 16.084 6.8261 19.5801 6.29876C20.1172 6.22063 20.7031 6.15227 20.8789 6.15227H21.2012L20.8496 6.59172C20.6543 6.8261 20.4492 7.18743 20.4004 7.39251C20.2148 8.21282 20.7813 9.09173 21.582 9.22844C22.3242 9.3554 22.5781 9.18938 24.4434 7.33391C25.4004 6.38665 26.25 5.49797 26.3281 5.35149C26.543 4.94133 26.5039 4.08196 26.25 3.74993C25.9277 3.31047 23.4473 0.810474 22.9199 0.380787C22.4902 0.03899 22.3828 -7.24792e-05 21.8945 -7.24792e-05C21.5137 -7.24792e-05 21.2402 0.0585213 21.0254 0.19524Z" fill="white"/>
<path d="M39.2574 0.15625C36.8356 0.791016 35.2535 2.88086 35.2535 5.41992C35.2535 7.05078 35.8004 8.36914 36.9137 9.41406C37.5973 10.0586 38.5055 10.5762 39.1891 10.6934C39.6383 10.7812 39.7652 10.9375 39.3746 10.9375C38.8668 10.9375 37.568 11.3184 36.7477 11.709C34.6578 12.7148 33.2223 14.1504 32.2164 16.2402C31.5719 17.5879 31.4254 18.3398 31.3766 20.4102C31.3277 22.4512 31.3863 22.6953 32.0211 23.1152L32.3531 23.3398L40.7906 23.3203L49.2184 23.291L49.5797 22.9199L49.9508 22.5586V20.5273C49.9508 18.7109 49.9313 18.4277 49.7262 17.7344C48.7106 14.2188 45.8395 11.582 42.3922 10.9961L41.65 10.8789L42.3336 10.6641C44.9117 9.88281 46.5524 7.19727 46.0934 4.51172C45.7516 2.4707 44.1109 0.664062 42.1383 0.146484C41.4156 -0.0390625 39.9703 -0.0390625 39.2574 0.15625Z" fill="white"/>
<path d="M7.91016 26.8066C5.99609 27.334 4.59961 28.7109 4.05273 30.6055C3.83789 31.3379 3.83789 32.8516 4.05273 33.6328C4.53125 35.4297 5.77148 36.6895 7.65625 37.3242C8.32031 37.5488 8.38867 37.5879 8.10547 37.5879C7.91992 37.5977 7.35352 37.7051 6.85547 37.8418C4.02344 38.6035 1.64062 40.7324 0.595703 43.457C0.126953 44.668 0 45.5078 0 47.3828C0 49.2383 0.0488281 49.4238 0.644531 49.8145C0.917969 49.9902 1.25977 50 9.27734 50C17.4414 50 17.6367 49.9902 17.9492 49.8047C18.125 49.6973 18.3496 49.4727 18.4668 49.2969C18.6523 48.9941 18.6621 48.8574 18.623 47.1191C18.5742 44.9219 18.4277 44.2285 17.6855 42.7246C16.748 40.8398 15.293 39.3848 13.4277 38.4766C12.5 38.0176 11.1328 37.6074 10.498 37.5977C10.2832 37.5879 10.4199 37.5195 10.9863 37.3242C11.9824 36.9922 12.6367 36.5723 13.3301 35.8203C13.9258 35.1855 14.3457 34.4238 14.5996 33.5645C14.7949 32.9004 14.8145 31.5039 14.6387 30.8105C14.2187 29.082 12.998 27.6953 11.2988 27.0117C10.7031 26.7676 10.4395 26.7188 9.52148 26.6895C8.7793 26.6699 8.28125 26.709 7.91016 26.8066Z" fill="white"/>
<path d="M44.6582 26.8163C44.0723 27.1093 43.9258 27.4999 43.8379 28.955C43.6523 31.9139 42.7246 34.6386 41.0742 37.0604C40.3418 38.1346 38.7012 39.8534 37.666 40.6346C35.2734 42.4413 32.4121 43.5546 29.5508 43.8085L28.7695 43.8768L29.1406 43.4276C29.3457 43.1737 29.5508 42.8124 29.5996 42.6073C29.7852 41.787 29.2188 40.9081 28.418 40.7714C27.6758 40.6444 27.4219 40.8104 25.5566 42.6659C24.5996 43.6132 23.75 44.5018 23.6719 44.6483C23.5938 44.7948 23.5352 45.1561 23.5352 45.4491C23.5352 45.9178 23.5742 46.035 23.916 46.455C24.3457 46.9823 26.8457 49.4628 27.2852 49.785C27.8906 50.244 29.1016 49.9901 29.4238 49.3456C29.7949 48.6132 29.6875 47.9686 29.0918 47.3241L28.7109 46.9042L29.6191 46.8358C32.041 46.6698 34.2773 46.035 36.6113 44.8632C40.1953 43.0565 42.9785 40.2928 44.8145 36.7186C46.1426 34.1307 46.875 31.2499 46.875 28.6132C46.875 27.5585 46.7285 27.1971 46.1719 26.8553C45.7812 26.621 45.0977 26.6014 44.6582 26.8163Z" fill="white"/>
</g>
<defs>
<clipPath id="clip0_163_2210">
<rect width="50" height="50" fill="white"/>
</clipPath>
</defs>
</svg>
