<svg width="52" height="43" viewBox="0 0 52 43" fill="none" xmlns="http://www.w3.org/2000/svg">
<g clip-path="url(#clip0_57_7478)">
<path d="M24.2873 0.10911C17.764 0.358385 11.225 3.8794 7.65977 9.08302L7.146 9.81527H7.51965C7.78432 9.81527 8.0957 9.56599 8.60947 8.91165C9.38791 7.89896 11.3963 5.85802 11.9412 5.49969C12.2526 5.29715 12.3616 5.32831 13.3735 5.92034C13.9807 6.2631 14.4789 6.62143 14.4789 6.68375C14.4789 6.76165 14.3699 6.90186 14.2298 7.0265C13.9963 7.21346 12.9843 8.60005 12.3771 9.53483C12.1125 9.97107 12.1125 9.97107 12.4705 9.97107C12.7508 9.97107 13.0622 9.67505 13.7472 8.74027C15.1795 6.79281 14.9616 6.8707 16.9232 7.55621C17.8418 7.88338 18.667 8.21056 18.7448 8.27288C18.8071 8.3352 18.7448 8.70911 18.6047 9.0986C18.449 9.50367 18.3711 9.86201 18.4179 9.90875C18.6358 10.1424 19.1029 9.75295 19.3676 9.0986C19.6167 8.50657 19.7101 8.39752 19.9903 8.47541C20.1616 8.53773 21.267 8.67795 22.4191 8.81817C24.9879 9.12976 24.9101 9.11418 24.9101 9.50367C24.9101 9.95549 25.5017 9.92433 25.564 9.45694C25.6107 9.16092 25.7352 9.0986 26.6226 9.00512C28.1328 8.83375 30.0945 8.56889 30.4059 8.47541C30.6083 8.4131 30.7484 8.56889 30.9819 9.0986C31.231 9.67505 31.3556 9.81527 31.6825 9.81527H32.0717L31.8226 9.22324C31.6825 8.91165 31.558 8.55331 31.5424 8.44425C31.5424 8.31962 32.2119 7.97686 33.3173 7.57179L35.1077 6.90186L35.4658 7.22904C35.746 7.47831 36.9915 9.08302 37.4586 9.78411C37.5053 9.86201 38.2993 9.93991 38.2993 9.86201C38.2993 9.75295 36.867 7.72759 36.4155 7.19788C36.1664 6.91744 35.964 6.63701 35.964 6.57469C35.964 6.51237 36.431 6.20078 37.0071 5.8736C37.9256 5.34389 38.0969 5.29715 38.4083 5.46853C38.9376 5.74896 41.1328 7.9457 41.8957 8.95838C42.3628 9.58157 42.643 9.81527 42.9232 9.81527C43.3903 9.81527 43.3592 9.76853 42.0358 8.08592C37.9412 2.8823 31.1999 -0.140166 24.2873 0.10911ZM28.0238 0.934834C29.4717 1.15295 29.7364 1.23085 29.7364 1.40223C29.7364 1.62034 28.2574 2.33701 27.3232 2.58628C26.3735 2.85114 24.2873 2.86672 23.1664 2.63302C22.3101 2.44607 20.5508 1.62034 20.5508 1.38665C20.5508 0.903675 25.7664 0.59208 28.0238 0.934834ZM19.8346 1.85404C20.0837 2.13447 20.0682 2.16563 19.352 2.60186C18.9472 2.85114 17.8729 3.66128 16.9855 4.37795C16.0981 5.09462 15.2729 5.74896 15.164 5.82686C14.9304 6.01382 13.1867 5.12578 13.1089 4.78302C13.031 4.40911 15.8023 2.85114 18.0598 2.00983C19.461 1.48012 19.4921 1.48012 19.8346 1.85404ZM32.0095 1.8852C33.5975 2.36817 37.3652 4.36237 37.3652 4.70512C37.3652 4.84534 35.4969 5.9515 35.3412 5.88918C35.2789 5.85802 34.7963 5.45295 34.267 4.98556C33.4418 4.25331 31.6514 2.92904 30.5771 2.22795C30.2813 2.04099 30.2813 2.02541 30.5771 1.79172C30.9508 1.51128 30.7484 1.4957 32.0095 1.8852ZM22.1077 3.27179C22.1077 3.34969 22.0454 3.44317 21.9676 3.48991C21.7652 3.61454 20.1927 6.0294 19.7879 6.82396C19.5855 7.22904 19.352 7.47831 19.1807 7.47831C18.8849 7.47831 16.3316 6.65259 16.0202 6.46563C15.6777 6.24752 18.0131 4.23773 19.9903 3.05368L20.8933 2.50839L21.5005 2.81998C21.843 2.99136 22.1077 3.19389 22.1077 3.27179ZM30.5771 3.11599C32.4921 4.23773 34.6095 6.09172 34.3137 6.38773C34.1113 6.59027 31.6202 7.47831 31.2466 7.47831C31.0909 7.47831 30.8418 7.2602 30.7017 6.99534C30.5616 6.73049 29.9388 5.74896 29.3161 4.81418L28.1951 3.11599L28.7711 2.81998C29.0825 2.6486 29.3783 2.50839 29.425 2.49281C29.4717 2.49281 29.9855 2.77324 30.5771 3.11599ZM24.5053 3.58338L24.9101 3.73918V5.99824V8.2573H23.867C22.8861 8.2573 21.158 8.03918 20.5196 7.85223C20.364 7.80549 20.2394 7.66527 20.2394 7.54063C20.2394 7.19788 21.843 4.67396 22.637 3.77034C22.964 3.39643 23.7891 3.30295 24.5053 3.58338ZM28.0238 4.17541C28.6777 5.06346 30.2035 7.47831 30.2035 7.63411C30.2035 7.89896 25.7664 8.50657 25.6107 8.2573C25.5795 8.21056 25.5484 7.15114 25.5484 5.88918L25.5173 3.59896L25.9532 3.53665C27.261 3.34969 27.4478 3.39643 28.0238 4.17541Z" fill="#2E4292"/>
<path d="M18.0752 12.0742C15.2573 12.713 13.6225 14.2865 13.2333 16.7481C12.9064 18.7423 13.4201 20.3315 14.8058 21.6557C15.9267 22.7307 16.7207 23.0735 21.0489 24.3822C24.8477 25.5351 25.486 25.8467 25.2836 26.4076C25.0034 27.1086 21.8273 27.28 20.177 26.6724C19.0872 26.2673 17.7327 25.2858 17.3435 24.6159L17.0633 24.1485H15.1483H13.2333V27.576V31.0036H15.3351H17.4369V30.3804C17.4369 30.0376 17.468 29.7572 17.4836 29.7572C17.5148 29.7572 17.9507 29.9597 18.4645 30.209C20.0058 30.988 21.6561 31.3619 23.5866 31.3775C27.6968 31.4086 30.1878 29.8195 30.904 26.7191C31.1998 25.4416 31.0441 24.1018 30.4369 22.9021C29.9854 22.0297 28.3662 20.4717 27.4944 20.0978C27.1363 19.9576 25.3459 19.3967 23.5088 18.867C19.8189 17.8076 19.0561 17.5271 18.916 17.1688C18.6513 16.4677 19.3363 16.047 20.7219 16.047C22.777 16.047 24.9878 16.9195 26.0932 18.1503L26.5758 18.6956H28.5531H30.5148V15.5018V12.3079H28.4908H26.4668V12.8532C26.4668 13.1492 26.4046 13.3985 26.3112 13.3985C26.2333 13.3985 25.8285 13.196 25.4237 12.9623C25.0189 12.713 24.1938 12.3858 23.5866 12.23C22.1387 11.8561 19.383 11.7782 18.0752 12.0742Z" fill="#2E4292"/>
<path d="M39.2337 12.0589C36.7272 12.6353 35.1858 13.4143 34.0182 14.6607C32.4301 16.39 31.7451 18.4933 31.7451 21.7339C31.7451 24.1643 32.1032 25.6755 33.0529 27.2958C34.0182 28.9317 36.0577 30.3183 38.5487 31.035C40.2457 31.5179 43.3751 31.5179 45.2278 31.0194C49.7427 29.8197 51.8601 26.9063 51.8912 21.8118C51.9379 16.5926 49.8673 13.6324 45.2745 12.2926C43.8577 11.8875 40.526 11.7473 39.2337 12.0589ZM43.2349 16.686C43.9355 16.9509 44.5116 17.6208 44.7607 18.4466C45.0409 19.3813 45.0876 23.8995 44.823 24.8498C44.5894 25.7067 43.9822 26.2987 43.0637 26.5636C42.0828 26.8596 41.6625 26.8596 40.6505 26.548C39.514 26.2208 39.1403 25.769 38.8289 24.3357C38.4553 22.6687 38.5954 18.8672 39.0469 17.9636C39.2337 17.6208 39.4828 17.2625 39.6074 17.1534C40.2924 16.577 42.2852 16.3277 43.2349 16.686Z" fill="#2E4292"/>
<path d="M0 14.3334V16.6703H1.4012H2.8024V21.5779V26.4855H1.4012H0V28.7446V31.0037H6.04072H12.0814V28.7758L12.0659 26.5634L10.7114 26.5167L9.34132 26.47V25.0366C9.34132 24.2421 9.31018 22.0453 9.29461 20.1446L9.26347 16.6859L10.6647 16.6392L12.0659 16.5924L12.1126 14.2866L12.1593 11.9964H6.08742H0V14.3334Z" fill="#2E4292"/>
<path d="M7.81565 34.1508C8.76535 35.5218 11.2097 37.9211 12.8444 39.074C15.1797 40.741 18.4647 42.1276 21.4073 42.7041C23.0731 43.0312 27.8995 43.0001 29.5809 42.6417C35.139 41.4577 39.8875 38.3262 43.1103 33.6834L43.4528 33.1849H43.0947C42.8144 33.1849 42.4408 33.512 41.6312 34.5247C40.4791 35.9736 38.6731 37.703 38.3306 37.703C38.0192 37.703 36.1198 36.6124 36.1198 36.441C36.1198 36.3631 36.4312 35.9113 36.836 35.4283C37.521 34.587 38.2995 33.4341 38.2995 33.2627C38.2995 33.216 38.1282 33.1849 37.9258 33.1849C37.6612 33.1849 37.4432 33.3562 37.1941 33.7613C36.9917 34.0729 36.5091 34.7272 36.0887 35.2258L35.3414 36.1294L33.5198 35.4906C32.5079 35.1323 31.6671 34.8363 31.636 34.8207C31.6204 34.7896 31.7294 34.4312 31.9007 33.9794L32.2276 33.1849H31.8695C31.6049 33.1849 31.4336 33.3562 31.1689 33.9015C30.842 34.5714 30.7797 34.6182 30.3127 34.5403C30.0324 34.478 28.8803 34.3222 27.7594 34.182C25.7821 33.9171 25.6887 33.8859 25.6887 33.5432C25.6887 33.2627 25.5953 33.1849 25.2995 33.1849C24.9881 33.1849 24.9103 33.2627 24.9103 33.5743C24.9103 33.995 25.0037 33.9638 22.2636 34.2754C21.3606 34.3689 20.4576 34.4935 20.2396 34.5403C19.8971 34.6026 19.8037 34.5091 19.4923 33.9015C19.2276 33.3251 19.0719 33.1849 18.7606 33.1849H18.3713L18.7606 33.9483C18.9785 34.3845 19.0875 34.7584 19.0097 34.8051C18.9474 34.8519 18.0911 35.1635 17.1103 35.5062L15.351 36.1294L14.9306 35.7399C14.6971 35.5062 14.1677 34.8519 13.7474 34.2599C13.2025 33.4964 12.9067 33.2004 12.6576 33.1849C12.4552 33.1849 12.2995 33.2316 12.2995 33.2783C12.2995 33.4185 13.2492 34.7584 13.9186 35.5841C14.6504 36.4722 14.6192 36.5656 13.2803 37.3291L12.3306 37.8588L11.3342 37.0175C10.4001 36.2073 9.54379 35.2725 8.42283 33.8392C8.06475 33.3874 7.80008 33.1849 7.53541 33.1849C7.14619 33.1849 7.14619 33.2004 7.81565 34.1508ZM24.9258 35.6309C24.9414 37.0954 24.9103 39.4635 24.8791 39.4946C24.848 39.5258 24.4432 39.5881 23.9606 39.6348L23.0887 39.7439L22.5282 38.9805C21.454 37.5316 20.2396 35.4595 20.3642 35.3348C20.5354 35.1635 23.042 34.774 24.1007 34.7584L24.9103 34.7428L24.9258 35.6309ZM28.7091 34.9765C29.5653 35.1012 30.2971 35.2414 30.3282 35.2881C30.4683 35.4127 29.9234 36.441 29.0204 37.7809C27.5881 39.8997 27.7594 39.7595 26.654 39.6348L25.6887 39.5258V37.1421V34.7428H26.436C26.8408 34.7428 27.8683 34.8519 28.7091 34.9765ZM19.8971 36.2073C20.0995 36.5812 20.7222 37.5783 21.2671 38.4196C22.2013 39.8218 22.2636 39.962 22.0144 40.149C21.3761 40.6164 20.7845 40.5696 19.8192 39.962C18.527 39.1363 16.036 37.0798 16.036 36.8461C16.036 36.737 16.5965 36.441 17.3282 36.1762C18.0288 35.9269 18.7139 35.6776 18.8384 35.6309C19.3522 35.4439 19.5546 35.553 19.8971 36.2073ZM32.2432 35.7711C33.333 36.0983 34.563 36.6124 34.563 36.7682C34.563 37.1888 30.2504 40.5073 29.6899 40.5073C29.3474 40.5073 28.4911 40.1334 28.4911 39.9776C28.4911 39.8997 28.8336 39.3388 29.2384 38.7312C29.6588 38.1236 30.2659 37.1577 30.5929 36.5656C30.9354 35.9892 31.2468 35.5218 31.2935 35.5218C31.3558 35.5218 31.7761 35.6309 32.2432 35.7711ZM15.9893 37.8588C17.0168 38.7935 18.3246 39.8062 19.3366 40.445C20.1306 40.928 20.2552 41.1772 19.8192 41.4265C19.1342 41.8004 13.1402 38.9805 13.2647 38.3417C13.2959 38.1704 14.8216 37.1109 15.0863 37.0798C15.1174 37.0798 15.5222 37.4381 15.9893 37.8588ZM36.4935 37.5939C37.0073 37.8743 37.4432 38.1859 37.4743 38.2794C37.5989 38.6222 35.248 40.0088 33.0683 40.8812C31.5426 41.4888 30.9665 41.5667 30.6863 41.224C30.5462 41.0526 30.7953 40.8189 31.9474 39.9776C32.7414 39.4167 33.8468 38.5287 34.4073 38.0146C34.9677 37.5004 35.4504 37.0954 35.4971 37.0798C35.5438 37.0798 35.9953 37.3135 36.4935 37.5939ZM27.1677 40.4294C28.3665 40.6943 29.8923 41.3798 29.8923 41.6914C29.8923 42.0341 27.7749 42.299 25.1438 42.2678C22.6839 42.2522 20.7689 41.9874 20.8001 41.6758C20.8312 41.4109 22.4504 40.6631 23.5091 40.445C24.8324 40.149 25.8444 40.149 27.1677 40.4294Z" fill="#2E4292"/>
</g>
<defs>
<clipPath id="clip0_57_7478">
<rect width="52" height="43" fill="white"/>
</clipPath>
</defs>
</svg>
