<svg width="20" height="20" viewBox="0 0 20 20" fill="none" xmlns="http://www.w3.org/2000/svg">
<path d="M8.50817 12.2917C8.58564 12.3698 8.67781 12.4318 8.77936 12.4741C8.88091 12.5164 8.98983 12.5382 9.09984 12.5382C9.20985 12.5382 9.31877 12.5164 9.42032 12.4741C9.52187 12.4318 9.61403 12.3698 9.6915 12.2917L13.0915 8.89167C13.2484 8.73475 13.3366 8.52192 13.3366 8.3C13.3366 8.07809 13.2484 7.86526 13.0915 7.70834C12.9346 7.55142 12.7218 7.46326 12.4998 7.46326C12.2779 7.46326 12.0651 7.55142 11.9082 7.70834L9.09984 10.525L8.0915 9.50834C7.93458 9.35142 7.72176 9.26326 7.49984 9.26326C7.27792 9.26326 7.06509 9.35142 6.90817 9.50834C6.75125 9.66526 6.66309 9.87809 6.66309 10.1C6.66309 10.3219 6.75125 10.5348 6.90817 10.6917L8.50817 12.2917ZM17.4998 1.66667H2.49984C2.27882 1.66667 2.06686 1.75447 1.91058 1.91075C1.7543 2.06703 1.6665 2.27899 1.6665 2.50001V17.5C1.6665 17.721 1.7543 17.933 1.91058 18.0893C2.06686 18.2455 2.27882 18.3333 2.49984 18.3333H17.4998C17.7208 18.3333 17.9328 18.2455 18.0891 18.0893C18.2454 17.933 18.3332 17.721 18.3332 17.5V2.50001C18.3332 2.27899 18.2454 2.06703 18.0891 1.91075C17.9328 1.75447 17.7208 1.66667 17.4998 1.66667ZM16.6665 16.6667H3.33317V3.33334H16.6665V16.6667Z" fill="#223683"/>
</svg>
