<svg width="16" height="16" viewBox="0 0 16 16" fill="none" xmlns="http://www.w3.org/2000/svg">
<g clip-path="url(#clip0_377_3608)">
<path d="M2.32592 13.6728C-0.801349 10.5456 -0.801349 5.45466 2.32592 2.32739C5.4532 -0.799885 10.5441 -0.799885 13.6714 2.32739C16.7987 5.45466 16.7987 10.5456 13.6714 13.6728C10.5441 16.8001 5.4532 16.8001 2.32592 13.6728ZM3.34411 12.6547C5.88956 15.2001 10.035 15.2001 12.5805 12.6547C15.1259 10.1092 15.1259 5.96375 12.5805 3.4183C10.035 0.872843 5.88956 0.872843 3.34411 3.4183C0.798651 5.96375 0.798651 10.0365 3.34411 12.6547ZM9.01683 8.00012L11.0532 10.0365L10.035 11.0547L7.99865 9.0183L5.96229 11.0547L4.94411 10.0365L6.98047 8.00012L4.94411 5.96375L5.96229 4.94557L7.99865 6.98193L10.035 4.94557L11.0532 5.96375L9.01683 8.00012Z" fill="#2E4292"/>
</g>
<defs>
<clipPath id="clip0_377_3608">
<rect width="16" height="16" fill="white"/>
</clipPath>
</defs>
</svg>
