<svg width="187" height="52" viewBox="0 0 187 52" fill="none" xmlns="http://www.w3.org/2000/svg">
<g clip-path="url(#clip0_210_24)">
<path fill-rule="evenodd" clip-rule="evenodd" d="M183.226 43.6637C183.661 43.6637 184.054 43.623 184.448 43.5551V44.9671H185.928V45.3337H184.448V48.4021C184.448 48.8637 184.489 49.1624 184.516 49.3389C184.584 49.4883 184.774 49.5969 185.018 49.5969C185.195 49.5969 185.412 49.529 185.588 49.3797C185.765 49.271 185.914 49.0538 185.982 48.7687H186.267C186.09 49.5562 185.48 49.9906 184.543 49.9906C184.109 49.9906 183.824 49.9227 183.647 49.7734C183.471 49.6241 183.321 49.4475 183.281 49.2303C183.24 48.9724 183.213 48.6872 183.213 48.3342V45.3473H182.1V44.9807H183.213V43.6637H183.226ZM165.568 52H166.789V49.081C167.156 49.6919 167.617 49.9771 168.269 49.9771C168.839 49.9771 169.422 49.6919 169.884 49.1896C170.386 48.6465 170.603 48.0355 170.603 47.316C170.603 46.6371 170.386 46.0533 169.952 45.5917C169.517 45.0893 168.974 44.8314 168.404 44.8314C167.685 44.8314 167.142 45.1979 166.789 45.9175V44.94C166.355 44.9807 165.853 44.9807 165.35 44.9807H164.672V45.3473H165.568V52ZM177.919 49.5833V45.3337H176.915V44.9671H177.919C178.462 44.9671 178.856 44.9671 179.141 44.9264V46.0804C179.467 45.293 179.901 44.9264 180.444 44.9264C180.702 44.9264 180.919 44.9671 181.055 45.1436C181.204 45.293 181.272 45.4695 181.272 45.6867C181.272 45.8632 181.231 46.0533 181.095 46.1619C180.987 46.3113 180.81 46.3384 180.634 46.3384C180.267 46.3384 180.091 46.1891 180.091 45.8361L180.132 45.5509C180.132 45.4831 180.091 45.4016 179.982 45.4016C179.833 45.4016 179.657 45.5781 179.48 45.9718C179.263 46.3384 179.154 46.8679 179.154 47.669V49.5833H180.2V49.9092H176.915V49.5833H177.919ZM173.087 46.7729H174.92C174.92 46.4878 174.96 46.2705 174.96 46.1212C174.96 45.4423 174.675 45.1165 174.064 45.1165C173.739 45.1165 173.522 45.1844 173.345 45.3744C173.196 45.5238 173.087 45.741 173.087 46.0261V46.7729ZM176.263 47.058H173.087C173.087 48.2799 173.128 49.0402 173.304 49.3254C173.481 49.6105 173.779 49.7598 174.2 49.7598C175.069 49.7598 175.68 49.2575 175.965 48.2392H176.25C176.1 48.8502 175.856 49.2846 175.463 49.6105C175.096 49.8956 174.675 50.0449 174.2 50.0449C173.522 50.0449 172.938 49.787 172.436 49.2846C171.961 48.823 171.716 48.1713 171.716 47.411C171.716 46.6914 171.933 46.0804 172.436 45.5781C172.897 45.0757 173.481 44.8178 174.132 44.8178C174.675 44.8178 175.177 45.035 175.571 45.4287C176.019 45.8361 176.223 46.3656 176.263 47.058ZM169.232 47.4517C169.232 46.6914 169.192 46.1483 169.164 45.9039C169.124 45.6188 169.015 45.4288 168.879 45.293C168.703 45.1844 168.554 45.1165 168.337 45.1165C167.943 45.1165 167.617 45.2658 167.359 45.5102C167.142 45.7953 166.966 46.0533 166.898 46.2977C166.83 46.5556 166.789 46.9494 166.789 47.4517C166.789 47.9948 166.83 48.3885 166.898 48.6737C166.966 48.9316 167.115 49.176 167.4 49.3932C167.658 49.5697 167.943 49.6784 168.296 49.6784C168.622 49.6784 168.866 49.529 169.015 49.2439C169.164 48.9724 169.232 48.3478 169.232 47.4517ZM161.306 47.0173L163.437 49.5697H164.047V49.8956H161.129V49.5697H161.916L160.518 47.9133L158.998 49.5697H159.975V49.8956H157.668V49.5697H158.645L160.342 47.6961L158.36 45.3201H157.641V44.9536H160.708V45.3201H159.88L161.143 46.8408L162.514 45.3201H161.523V44.9536H163.789V45.3201H162.853L161.306 47.0173ZM153.677 46.7729H155.51C155.55 46.4878 155.55 46.2705 155.55 46.1212C155.55 45.4423 155.265 45.1165 154.655 45.1165C154.37 45.1165 154.112 45.1844 153.935 45.3744C153.786 45.5238 153.677 45.741 153.677 46.0261V46.7729ZM156.84 47.058H153.664C153.664 48.2799 153.704 49.0402 153.881 49.3254C154.057 49.6105 154.356 49.7598 154.777 49.7598C155.645 49.7598 156.256 49.2575 156.541 48.2392H156.826C156.677 48.8502 156.433 49.2846 156.039 49.6105C155.673 49.8956 155.252 50.0449 154.777 50.0449C154.098 50.0449 153.514 49.787 153.012 49.2846C152.537 48.823 152.293 48.1713 152.293 47.411C152.293 46.6914 152.51 46.0804 153.012 45.5781C153.474 45.0757 154.057 44.8178 154.709 44.8178C155.252 44.8178 155.754 45.035 156.148 45.4287C156.596 45.8361 156.813 46.3656 156.84 47.058ZM147.759 44.9264V46.3384H147.501C147.325 45.5102 146.85 45.1165 146.09 45.1165C145.805 45.1165 145.52 45.1844 145.303 45.3744C145.085 45.5509 144.977 45.741 144.977 45.9447C144.977 46.1212 145.085 46.2705 145.235 46.3791C145.384 46.4878 145.737 46.5964 146.321 46.6643C147.542 46.8136 148.153 47.3838 148.153 48.3614C148.153 48.8366 148.004 49.2303 147.691 49.5562C147.366 49.9227 146.972 50.0585 146.497 50.0585C146.036 50.0585 145.56 49.882 145.126 49.4883L144.665 49.8549H144.488V48.022H144.665C145.031 49.2167 145.642 49.787 146.497 49.787C146.782 49.787 147.067 49.6784 147.366 49.5019C147.624 49.2846 147.759 49.0402 147.759 48.7823C147.759 48.565 147.691 48.3885 147.501 48.2392C147.352 48.1306 146.931 48.022 146.239 47.9541C145.085 47.7776 144.475 47.2345 144.475 46.3656C144.475 45.9311 144.651 45.5781 144.95 45.2794C145.275 44.9943 145.669 44.8449 146.103 44.8449C146.606 44.8449 146.999 45.0214 147.325 45.3473C147.393 45.2387 147.474 45.1301 147.583 44.9536H147.759V44.9264ZM143.47 42.6998C143.47 43.3786 143.036 44.1118 142.208 44.8314L141.991 44.6141C142.751 43.9624 143.104 43.3515 143.104 42.8084C143.104 42.4418 143.036 42.2653 142.886 42.2653C142.819 42.2653 142.737 42.3332 142.71 42.4825C142.601 42.8084 142.384 42.9577 142.059 42.9577C141.882 42.9577 141.733 42.8898 141.583 42.7812C141.475 42.6319 141.407 42.4554 141.407 42.2382C141.407 42.0209 141.475 41.8037 141.665 41.6679C141.841 41.5186 142.059 41.4507 142.316 41.4507C142.642 41.4507 142.9 41.5593 143.144 41.8173C143.362 42.0073 143.47 42.3332 143.47 42.6998ZM135.516 49.5833V45.3337H134.62V44.9671H135.19C135.733 44.9671 136.276 44.9671 136.697 44.8992V46.1212H136.738C137.172 45.2523 137.783 44.8178 138.543 44.8178C138.937 44.8178 139.222 44.9264 139.439 45.1029C139.697 45.2794 139.832 45.5374 139.941 45.7546C140.009 46.0126 140.05 46.4063 140.05 46.9494V49.5833H141.027V49.9092H138V49.5833H138.869V46.447C138.869 45.9854 138.828 45.6596 138.76 45.4695C138.692 45.293 138.543 45.1844 138.299 45.1844C137.905 45.1844 137.539 45.4016 137.213 45.7953C136.887 46.2298 136.711 46.7729 136.711 47.4925V49.5833H137.539V49.9092H134.62V49.5833H135.516ZM131.946 42.4825C131.946 42.306 132.014 42.1567 132.164 42.0209C132.313 41.8716 132.449 41.8037 132.625 41.8037C132.801 41.8037 132.951 41.8716 133.1 42.0209C133.249 42.1295 133.317 42.306 133.317 42.4825C133.317 42.659 133.249 42.8491 133.1 42.9849C132.992 43.0935 132.815 43.1614 132.625 43.1614C132.449 43.1614 132.259 43.0935 132.164 42.9849C132.014 42.8355 131.946 42.659 131.946 42.4825ZM132.014 44.9671C132.408 44.9671 132.842 44.9671 133.209 44.8992V49.5833H134.037V49.9092H131.118V49.5833H131.987V45.3337H131.118V44.9671H132.014ZM129.883 44.9264V46.3384H129.625C129.449 45.5102 128.974 45.1165 128.214 45.1165C127.888 45.1165 127.644 45.1844 127.426 45.3744C127.209 45.5509 127.101 45.741 127.101 45.9447C127.101 46.1212 127.169 46.2705 127.318 46.3791C127.467 46.4878 127.82 46.5964 128.404 46.6643C129.625 46.8136 130.277 47.3838 130.277 48.3614C130.277 48.8366 130.1 49.2303 129.775 49.5562C129.449 49.9227 129.055 50.0585 128.58 50.0585C128.105 50.0585 127.644 49.882 127.209 49.4883L126.775 49.8549H126.558V48.022H126.775C127.141 49.2167 127.711 49.787 128.58 49.787C128.906 49.787 129.191 49.6784 129.449 49.5019C129.707 49.2846 129.843 49.0402 129.843 48.7823C129.843 48.565 129.775 48.3885 129.625 48.2392C129.449 48.1306 129.055 48.022 128.322 47.9541C127.169 47.7776 126.598 47.2345 126.598 46.3656C126.598 45.9311 126.748 45.5781 127.074 45.2794C127.399 44.9943 127.752 44.8449 128.227 44.8449C128.689 44.8449 129.096 45.0214 129.422 45.3473C129.53 45.2387 129.598 45.1301 129.68 44.9536H129.883V44.9264ZM124.237 46.7729C124.277 46.4878 124.277 46.2705 124.277 46.1212C124.277 45.4423 123.992 45.1165 123.382 45.1165C123.097 45.1165 122.839 45.1844 122.703 45.3744C122.445 45.4831 122.377 46.4878 122.418 46.7865H124.237V46.7729ZM125.567 47.058H122.431C122.391 48.2799 122.472 49.0402 122.608 49.3254C122.784 49.6105 123.083 49.7598 123.504 49.7598C124.4 49.7598 124.983 49.2575 125.309 48.2392H125.567C125.418 48.8502 125.173 49.2846 124.807 49.6105C124.413 49.8956 123.979 50.0449 123.504 50.0449C122.825 50.0449 122.241 49.787 121.739 49.2846C121.264 48.823 121.02 48.1713 121.02 47.411C121.02 46.6914 121.278 46.0804 121.739 45.5781C122.201 45.0757 122.784 44.8178 123.436 44.8178C123.979 44.8178 124.481 45.035 124.875 45.4287C125.309 45.8361 125.526 46.3656 125.567 47.058ZM114.83 41.8308V45.3337H115.943C116.446 45.3337 116.812 45.2658 117.056 45.2251C117.314 45.1572 117.491 44.9671 117.667 44.7227C117.817 44.4376 117.884 44.0032 117.884 43.3922C117.884 42.917 117.817 42.564 117.667 42.3468C117.491 42.1295 117.301 41.9802 117.097 41.9123C116.88 41.8716 116.595 41.8444 116.228 41.8444H114.83V41.8308ZM113.351 49.5833V41.8308H112.048V41.505H116.622C117.192 41.505 117.708 41.5729 118.102 41.6815C118.468 41.7494 118.78 41.9666 119.079 42.3332C119.364 42.659 119.513 43.012 119.513 43.4465C119.513 43.9489 119.296 44.424 118.902 44.7499C118.468 45.0757 117.789 45.3201 116.812 45.4695V45.5102C117.531 45.6596 118.115 45.9039 118.536 46.2977C118.97 46.6914 119.215 47.3838 119.215 48.3207C119.215 48.8637 119.255 49.2167 119.391 49.3661C119.5 49.5154 119.676 49.5833 119.893 49.5833C120.07 49.5833 120.219 49.5426 120.436 49.5154V49.8006C120.07 49.9499 119.717 49.9771 119.391 49.9771C118.712 49.9771 118.237 49.8006 117.952 49.434C117.667 49.0402 117.518 48.6737 117.518 48.2799L117.559 47.2345C117.559 46.8679 117.45 46.4742 117.192 46.1483C116.975 45.7818 116.432 45.5781 115.604 45.5781H114.83V49.5833H116.133V49.9092H112.061V49.5833H113.351Z" fill="white"/>
<path fill-rule="evenodd" clip-rule="evenodd" d="M65.7494 13.061L73.3912 35.3409C73.6491 35.9519 73.8527 36.3864 74.1513 36.6036C74.4092 36.8208 74.7214 36.9294 75.1558 36.9294H75.9159V38.4772H66.2924V36.9294H67.1882C67.9076 36.9294 68.4098 36.8616 68.6677 36.6443C68.9527 36.4678 69.0613 36.2099 69.0613 35.884C69.0613 35.6261 69.0206 35.3409 68.912 35.0558L67.3239 30.4396H59.655L58.9356 32.5305C58.6098 33.4266 58.4741 34.0375 58.4741 34.472C58.4741 35.1916 58.6913 35.8025 59.1256 36.237C59.6007 36.7122 60.2115 36.9159 60.958 36.9159H61.6096V38.4636H53.832V36.9294H54.2935C54.7686 36.9294 55.1894 36.7529 55.5966 36.3592C56.1395 35.8569 56.5331 35.1373 56.8589 34.3091L64.2428 13.0746H65.7494V13.061ZM63.5098 19.3336L60.2251 28.7832H66.7539L63.5098 19.3336Z" fill="white"/>
<path fill-rule="evenodd" clip-rule="evenodd" d="M100.85 12.9526H121.889L122.432 22.6059H120.952C120.626 20.515 120.165 18.8994 119.622 17.7453C119.052 16.5505 118.428 15.7223 117.708 15.2607C116.989 14.7584 116.202 14.5004 115.36 14.5004C114.858 14.5004 114.532 14.6498 114.274 14.8263C114.057 15.0842 113.948 15.3693 113.948 15.7631V35.5855C113.948 35.9521 114.057 36.2644 114.274 36.4816C114.491 36.7396 114.736 36.8754 115.061 36.8754H117.803V38.4639H104.936V36.8754H107.528C107.922 36.8754 108.248 36.7667 108.465 36.5088C108.682 36.2508 108.79 35.9385 108.79 35.572V15.8853C108.79 15.4101 108.682 15.0978 108.465 14.8806C108.207 14.6633 107.854 14.514 107.352 14.514C104.583 14.514 102.71 17.2158 101.732 22.6195H100.307L100.85 12.9526Z" fill="white"/>
<path fill-rule="evenodd" clip-rule="evenodd" d="M124.305 12.9253H136.629V14.5138H134.39C133.928 14.5138 133.562 14.5817 133.344 14.7989C133.127 15.0162 133.019 15.3013 133.019 15.695V35.4767C133.019 35.9519 133.127 36.2642 133.385 36.4543C133.67 36.7122 134.105 36.848 134.647 36.848H136.629V38.4365H124.305V36.848H126.178C126.829 36.848 127.291 36.7394 127.549 36.4814C127.834 36.2642 127.942 35.9383 127.942 35.4767V15.9122C127.942 15.4099 127.834 15.084 127.576 14.8261C127.318 14.6088 126.965 14.5002 126.422 14.5002H124.291V12.9253H124.305Z" fill="white"/>
<path fill-rule="evenodd" clip-rule="evenodd" d="M77.0693 12.9253H98.108L98.6102 22.6193H97.1714C96.8049 20.5284 96.3435 18.9128 95.8005 17.7587C95.2576 16.5639 94.6061 15.7357 93.9274 15.2741C93.208 14.7718 92.4207 14.5138 91.5521 14.5138C91.0906 14.5138 90.7241 14.6224 90.5069 14.8397C90.249 15.0569 90.1404 15.3827 90.1404 15.7765V35.5989C90.1404 35.9655 90.249 36.2778 90.4662 36.495C90.7241 36.753 90.9684 36.8887 91.2942 36.8887H94.036V38.4773H81.1413V36.8887H83.7745C84.141 36.8887 84.4532 36.7394 84.6704 36.5222C84.9283 36.2642 85.0369 35.9519 85.0369 35.5853V15.8851C85.0369 15.4099 84.9283 15.0976 84.6704 14.8397C84.4532 14.6224 84.0596 14.5138 83.5845 14.5138C80.8155 14.5138 78.9424 17.2156 77.9651 22.6193H76.5264L77.0693 12.9253Z" fill="white"/>
<path fill-rule="evenodd" clip-rule="evenodd" d="M138.136 12.8848H150.067V14.4733H148.126C147.515 14.4733 147.081 14.5819 146.823 14.7991C146.606 15.0164 146.497 15.3422 146.497 15.8038V27.1542L154.424 17.3923C154.858 16.8221 155.102 16.3062 155.102 15.8446C155.102 15.4508 154.953 15.125 154.668 14.9077C154.274 14.6226 153.772 14.4733 153.08 14.4733H152.428V12.8848H162.337V14.4733H161.686C160.817 14.4733 159.989 14.7312 159.229 15.1929C158.116 15.9124 156.989 16.9171 155.876 18.3292L152.809 22.1171L159.948 35.2054C160.233 35.7485 160.6 36.1422 161.034 36.4002C161.577 36.726 162.12 36.8754 162.622 36.8754H163.599V38.4639H151.777V36.8754H152.971C153.623 36.8754 154.084 36.7668 154.383 36.5903C154.668 36.4137 154.817 36.1965 154.817 35.9793C154.817 35.8299 154.75 35.6942 154.641 35.5041L149.524 26.1631L146.497 29.9104V35.4905C146.497 35.9657 146.606 36.3187 146.823 36.5359C147.081 36.7532 147.366 36.8618 147.759 36.8618H149.917V38.4503H138.136V36.8618H139.832C140.335 36.8618 140.728 36.7532 140.986 36.4952C141.203 36.278 141.353 35.9521 141.353 35.4905V15.6952C141.353 15.3015 141.203 15.0164 140.986 14.7991C140.769 14.5819 140.375 14.4733 139.832 14.4733H138.136V12.8848Z" fill="white"/>
<path fill-rule="evenodd" clip-rule="evenodd" d="M176.847 13.0342L184.516 35.3005C184.733 35.9522 184.95 36.3459 185.236 36.5632C185.493 36.8211 185.846 36.9297 186.24 36.9297H187V38.4775H177.417V36.9297H178.313C178.992 36.9297 179.508 36.8211 179.752 36.6446C180.037 36.4681 180.186 36.2102 180.186 35.8843C180.186 35.6263 180.118 35.3412 180.01 35.0154L178.422 30.4399H170.753L170.033 32.5308C169.708 33.3997 169.558 34.0378 169.558 34.4723C169.558 35.1919 169.775 35.7757 170.21 36.2373C170.685 36.7125 171.296 36.9162 172.042 36.9162H172.694V38.4639H164.943V36.9297H165.378C165.88 36.9297 166.314 36.7532 166.681 36.3595C167.224 35.8164 167.658 35.1376 167.943 34.3094L175.327 13.0478H176.847V13.0342ZM174.608 19.3068L171.323 28.7835H177.852L174.608 19.3068Z" fill="white"/>
<path d="M22.3144 0.448242L44.2489 13.102V38.4232L22.3144 51.077L0.379883 38.4232V13.102L22.3144 0.448242Z" stroke="white" stroke-width="0.5661" stroke-miterlimit="22.9256"/>
<path fill-rule="evenodd" clip-rule="evenodd" d="M22.3146 1.24902L43.5568 13.4955V38.0292L22.3146 50.2757L1.07227 38.0292V13.4955L22.3146 1.24902Z" fill="white"/>
<path fill-rule="evenodd" clip-rule="evenodd" d="M22.3145 3.24512L32.0601 8.87958L41.8194 14.5005V25.7558V37.0247L32.0601 42.6456L22.3145 48.2801L12.5552 42.6456L2.80957 37.0247V25.7558V14.5005L12.5552 8.87958L22.3145 3.24512Z" fill="#F9E10C"/>
<path fill-rule="evenodd" clip-rule="evenodd" d="M20.9979 25.8643L3.55615 15.6001L3.62402 35.9249L20.9979 25.8643Z" fill="#2E4292"/>
</g>
<defs>
<clipPath id="clip0_210_24">
<rect width="187" height="52" fill="white"/>
</clipPath>
</defs>
</svg>
