<svg width="24" height="24" viewBox="0 0 24 24" fill="none" xmlns="http://www.w3.org/2000/svg">
<path d="M19.9 8.7C19.9 8.5 19.8 8.4 19.7 8.3L13.7 2.3C13.6 2.2 13.5 2.2 13.4 2.1H13.3C13.3 2.1 13.2 2 13.1 2H7C5.3 2 4 3.3 4 5V19C4 20.7 5.3 22 7 22H17C18.7 22 20 20.7 20 19V9C20 9 20 9 20 8.9C20 8.8 20 8.8 19.9 8.7ZM14 5.4L16.6 8H15C14.4 8 14 7.6 14 7V5.4ZM18 19C18 19.6 17.6 20 17 20H7C6.4 20 6 19.6 6 19V5C6 4.4 6.4 4 7 4H12V7C12 8.7 13.3 10 15 10H18V19Z" fill="#2E4292"/>
<path d="M7.19922 12.7C7.49922 12.6 7.79922 12.6 8.39922 12.6C8.89922 12.6 9.29922 12.7 9.59922 13C9.79922 13.3 9.99922 13.7 9.99922 14.2C9.99922 14.7 9.89922 15.1 9.59922 15.4C9.29922 15.8 8.79922 16 8.29922 16C8.19922 16 8.09922 16 7.99922 16V17.8H7.19922V12.7ZM7.99922 15C8.09922 15 8.19922 15 8.29922 15C8.79922 15 8.99922 14.7 8.99922 14.2C8.99922 13.7 8.79922 13.5 8.29922 13.5C8.09922 13.5 7.99922 13.5 7.89922 13.5V15H7.99922Z" fill="#2E4292"/>
<path d="M10.5 12.7C10.8 12.6 11.2 12.6 11.7 12.6C12.4 12.6 12.9 12.8 13.3 13.1C13.7 13.5 14 14.1 14 15C14 16 13.7 16.7 13.4 17.1C13 17.5 12.4 17.8 11.6 17.8C11.1 17.8 10.8 17.8 10.6 17.7V12.7H10.5ZM11.4 16.9C11.5 16.9 11.6 16.9 11.7 16.9C12.5 16.9 13 16.3 13 15.1C13 14 12.5 13.5 11.8 13.5C11.6 13.5 11.5 13.5 11.4 13.5V16.9Z" fill="#2E4292"/>
<path d="M14.5 12.7H16.9V13.6H15.4V14.8H16.8V15.7H15.4V17.8H14.5V12.7Z" fill="#2E4292"/>
</svg>
