<svg width="58" height="58" viewBox="0 0 58 58" fill="none" xmlns="http://www.w3.org/2000/svg">
<g clip-path="url(#clip0_256_2326)">
<path d="M29 58C45.0163 58 58 45.0163 58 29C58 12.9837 45.0163 0 29 0C12.9837 0 0 12.9837 0 29C0 45.0163 12.9837 58 29 58Z" fill="#2E4292"/>
<path d="M38.0015 26.9606L25.8145 18.6038C25.2673 18.2058 24.6704 18.0069 24.2228 18.0069C23.2776 18.0069 22.7305 18.753 22.7305 19.9468V38.0034C22.7305 39.247 23.2776 39.9434 24.173 39.9434C24.6704 39.9434 25.2176 39.7444 25.7648 39.3465L37.9517 30.9897C38.7476 30.4425 39.1953 29.7461 39.1953 28.9503C39.1953 28.1544 38.7974 27.5077 38.0015 26.9606Z" fill="white"/>
</g>
<defs>
<clipPath id="clip0_256_2326">
<rect width="58" height="58" fill="white"/>
</clipPath>
</defs>
</svg>
